<?xml version="1.0" encoding="UTF-8"?>
<svg width="190px" height="220px" viewBox="0 0 190 220" version="1.1" xmlns="http://www.w3.org/2000/svg" xmlns:xlink="http://www.w3.org/1999/xlink">
    <title>编组 12</title>
    <defs>
        <rect id="path-1" x="0" y="0" width="190" height="220" rx="22"></rect>
    </defs>
    <g id="页面-1" stroke="none" stroke-width="1" fill="none" fill-rule="evenodd">
        <g id="我的" transform="translate(-60.000000, -1028.000000)">
            <g id="编组-12" transform="translate(60.000000, 1028.000000)">
                <g id="矩形-3">
                    <mask id="mask-2" fill="white">
                        <use xlink:href="#path-1"></use>
                    </mask>
                    <use id="矩形" fill="#FFF6ED" xlink:href="#path-1"></use>
                    <g id="网站备份" opacity="0.0363420759" mask="url(#mask-2)" fill-rule="nonzero">
                        <g transform="translate(48.000000, 104.000000)">
                            <path d="M0,88 C0,136.601058 39.398942,176 88,176 C136.601058,176 176,136.601058 176,88 C176,39.398942 136.601058,0 88,0 C39.398942,0 0,39.398942 0,88 Z" id="路径" fill="#8D6337"></path>
                            <path d="M140.680441,53.973909 C142.990445,45.8567449 143.855837,30.2000105 129.409034,28.1816886 C117.851798,26.733762 103.984386,34.2659624 96.7389845,39.2020757 C94.428981,38.9095082 91.8257584,38.617112 89.2297544,38.617112 C70.4269448,38.3245445 58.3049266,44.7012145 47.8989109,58.3176887 C44.1442958,63.2464322 40.6756812,71.6561639 39.5096795,81.2065148 C38.952288,85.7038625 38.952288,90.7863453 39.5096795,93.6821984 L39.5096795,93.9745946 C38.9228973,95.130125 38.3582871,96.285484 37.7716768,97.7334106 C25.3416581,128.739572 35.4542827,142.077876 45.0022971,144.388765 C53.6703102,146.714223 65.8143285,142.370443 75.6263433,131.935191 C92.0971494,135.701206 108.597174,131.357598 114.654402,128.169177 C126.21181,121.799705 134.307822,110.50149 136.053044,98.8961395 L104.255777,98.8961395 C104.255777,98.8961395 102.810994,109.031626 85.7537492,109.031626 C70.148335,109.031626 69.2829431,90.7863453 69.2829431,90.7863453 L136.625045,90.7863453 C136.625045,90.7863453 137.783828,71.0710288 128.243032,58.0251212 C122.743024,50.7854883 115.519794,44.4014484 105.406998,40.9352 C108.589784,38.617112 113.78901,35.1215554 118.409017,33.9661964 C127.07703,31.647937 132.87043,33.0958636 136.625045,39.472705 C141.538443,48.1602644 133.735822,68.1679771 133.735822,68.1679771 C133.735822,68.1679771 138.355829,62.3762708 140.673051,53.973909 L140.680441,53.973909 Z M68.6669422,129.207475 C56.3469236,140.688566 46.1756895,139.182194 42.1496834,132.542093 C38.6662876,126.501867 38.1308961,115.920246 42.1496834,101.126474 C44.0436395,107.031169 47.1421112,112.481295 51.2503065,117.134221 C56.6037052,123.167249 62.4995423,127.094201 68.6669422,129.207475 L68.6669422,129.207475 Z M68.6743328,71.2977815 C68.6743328,71.2977815 69.2757243,58.5370716 84.0009653,57.4034794 C96.6289843,56.2626888 103.243776,61.6523075 105.333779,71.8755467 L68.6669422,71.3051514 L68.6743328,71.3051514 L68.6743328,71.2977815 Z" id="形状" fill="#FFFFFF"></path>
                        </g>
                    </g>
                </g>
                <text id="永久地址" font-family="MiSans-Heavy, MiSans" font-size="26" font-weight="800" fill="#CE7E2A">
                    <tspan x="24" y="50">永久地址</tspan>
                </text>
                <text id="https/www.goo-gle.co" font-family="PingFangSC-Regular, PingFang SC" font-size="20" font-weight="normal" line-spacing="24" fill="#CE7E2A">
                    <tspan x="24" y="90">https/www.goo</tspan>
                    <tspan x="24" y="114">gle.com</tspan>
                </text>
                <g id="网站" transform="translate(24.000000, 142.000000)" fill-rule="nonzero">
                    <path d="M0,28 C0,43.463973 12.536027,56 28,56 C43.463973,56 56,43.463973 56,28 C56,12.536027 43.463973,0 28,0 C12.536027,0 0,12.536027 0,28 Z" id="路径" fill="#CE7E2A"></path>
                    <path d="M44.5801404,17.2139712 C45.3151416,14.6470048 45.5904935,9.6957298 40.9937835,9.05745707 C37.3164811,8.59956576 32.9041228,10.9815437 30.5987678,12.5425368 C29.8637667,12.4500154 29.0354686,12.3575482 28.2094673,12.3575482 C22.2267552,12.2650269 18.3697494,14.2815806 15.0587444,18.5876452 C13.8640941,20.1463076 12.760444,22.8057954 12.3894435,25.8259919 C12.2120916,27.24823 12.2120916,28.8555109 12.3894435,29.7712935 L12.3894435,29.8637607 C12.2027401,30.2291848 12.0230914,30.5945548 11.8364426,31.0524461 C7.88143667,40.8578134 11.09909,45.0759095 14.1370945,45.8067036 C16.8950987,46.5421047 20.7591045,45.1684308 23.8811092,41.8683938 C29.1218203,43.0593557 34.3718282,41.685736 36.299128,40.677432 C39.9764851,38.6631547 42.552489,35.0902149 43.1077867,31.4201467 L32.9904745,31.4201467 C32.9904745,31.4201467 32.5307707,34.6253858 27.1034657,34.6253858 C22.1381066,34.6253858 21.8627546,28.8555109 21.8627546,28.8555109 L43.2897869,28.8555109 C43.2897869,28.8555109 43.6584906,22.6207527 40.6227829,18.4951238 C38.8727803,16.2056672 36.5744799,14.1867828 33.356772,13.0906188 C34.3694766,12.3575482 36.023776,11.2521158 37.4937782,10.8867459 C40.2517824,10.1536211 42.0951367,10.6115124 43.2897869,12.6281204 C44.8531409,15.3754682 42.3704887,21.7026936 42.3704887,21.7026936 C42.3704887,21.7026936 43.8404909,19.8711284 44.5777889,17.2139712 L44.5801404,17.2139712 Z M21.6667543,41.0057825 C17.7467484,44.6365549 14.5104467,44.160181 13.2294447,42.0603201 C12.1210915,40.1501632 11.9507397,36.8038384 13.2294447,32.1254662 C13.8320671,33.9927627 14.8179445,35.7163071 16.1250975,37.1877452 C17.8284517,39.0956256 19.7043998,40.3374824 21.6667543,41.0057825 L21.6667543,41.0057825 Z M21.6691059,22.6924608 C21.6691059,22.6924608 21.8604577,18.6570226 26.5457617,18.2985362 C30.5637677,17.9377734 32.668474,19.6421827 33.333475,22.8751729 L21.6667543,22.6947915 L21.6691059,22.6947915 L21.6691059,22.6924608 Z" id="形状" fill="#FFFFFF"></path>
                </g>
            </g>
        </g>
    </g>
</svg>