<?xml version="1.0" encoding="UTF-8"?>
<svg width="459px" height="86px" viewBox="0 0 459 86" version="1.1" xmlns="http://www.w3.org/2000/svg" xmlns:xlink="http://www.w3.org/1999/xlink">
    <title>编组 6</title>
    <defs>
        <rect id="path-1" x="0" y="0" width="459" height="86" rx="12"></rect>
    </defs>
    <g id="页面-1" stroke="none" stroke-width="1" fill="none" fill-rule="evenodd">
        <g id="我的" transform="translate(-232.000000, -361.000000)">
            <g id="编组-7" transform="translate(30.000000, 165.000000)">
                <g id="编组-6" transform="translate(202.000000, 196.000000)">
                    <g id="编组-13">
                        <g id="矩形备份-2">
                            <mask id="mask-2" fill="white">
                                <use xlink:href="#path-1"></use>
                            </mask>
                            <use id="矩形备份" fill="#FFF7DF" xlink:href="#path-1"></use>
                            <g id="VIP" opacity="0.666480655" style="mix-blend-mode: overlay;" mask="url(#mask-2)" fill="#000000" fill-rule="nonzero">
                                <g transform="translate(-15.000000, -25.000000)" id="形状">
                                    <path d="M107.293581,81.140309 L107.293581,142 L120.08319,142 L120.08319,119.900013 C140.525159,120.203241 150.888844,119.293556 153.760709,101.849014 C154.67043,96.7476448 152.850988,91.0219822 150.585604,87.8826781 C143.842965,78.750157 123.561535,81.0154503 107.293581,81.140309 L107.293581,81.140309 Z M120.08319,109.554579 L120.08319,91.8068083 C129.57283,91.5035801 139.615437,90.4511997 141.274341,98.1210904 C144.003504,110.945861 130.750116,109.857807 120.08319,109.554579 Z M82.6597594,81.4435372 C82.8024607,101.58146 82.8024607,121.862078 82.9629997,142 L95.4493682,142 L95.4493682,81.140309 C91.2396783,81.3186786 87.0121506,81.3186786 82.6597594,81.4435372 Z M106.865477,0 C87.154852,19.6741615 67.4977404,39.2056275 47.6444145,58.9154629 L47.6444145,0 L0,0 C0.142701361,3.90629317 0.142701361,7.95528198 0.303240327,11.8794122 L11.8798876,11.8794122 L11.8798876,141.910815 C59.2210618,94.5358623 106.419535,47.3392791 153.760709,0 L106.865477,0 L106.865477,0 Z"></path>
                                </g>
                            </g>
                        </g>
                        <g id="编组-4" transform="translate(23.000000, 23.000000)">
                            <g id="皇冠1" fill-rule="nonzero">
                                <path d="M0,11.4112649 L0.153333341,11.0300818 C0.648749523,9.4994665 2.2842517,8.64395004 3.83333332,9.10510697 C4.55498639,9.3451555 5.14020764,9.87859924 5.44333333,10.5726621 C6.01309248,11.6115633 5.8997347,12.8890785 5.15583334,13.8127187 C5.02713067,13.86849 4.92441925,13.9706253 4.86833332,14.0986061 C7.07249996,15.432747 9.12333331,16.7478288 11.1933333,17.9104374 L13.5508333,19.3779924 C13.6784096,19.4994148 13.8564193,19.553329 14.0304031,19.5232407 C14.2043868,19.4931524 14.3536397,19.3826422 14.4325,19.2255192 L14.5858333,19.073046 C17.0391667,14.7275582 19.3966667,10.2867747 21.8883333,5.69351792 C20.8259334,5.23429218 20.1349671,4.19618793 20.125,3.04429517 C20.1237219,2.20736678 20.4705772,1.40717605 21.0833333,0.833432985 C22.2296542,-0.277810995 24.0578458,-0.277810995 25.2041667,0.833432985 L25.3575,0.985906246 C26.5266667,2.45346131 26.0858333,4.22596289 24.1883333,5.56010384 C24.7387954,6.73814551 25.3795746,7.87233473 26.105,8.95263374 C27.8683333,12.1926904 29.6316667,15.4518062 31.395,18.4822121 C31.8358333,19.2255192 32.1233333,19.3589333 32.7175,18.9205727 C35.5158333,17.3005444 38.1608333,15.5280428 40.94,13.9080145 L41.3808333,13.6221271 C40.8170665,13.1308654 40.4497223,12.4544143 40.3458333,11.7162115 C40.2448869,10.1421882 41.4129668,8.77023848 42.9908333,8.6095689 C44.3361175,8.51528182 45.5621784,9.37588207 45.9233333,10.6679578 C45.9179549,10.9179231 45.9437062,11.1675895 46,11.4112649 L46,12.516696 C45.6848668,13.9450115 44.383391,14.9417679 42.9141667,14.8800315 C42.8452116,15.0719657 42.7938906,15.2697191 42.7608333,15.4708653 L37.9116667,32.0142134 C37.9029414,32.2971165 37.7656646,32.5608208 37.5384063,32.7312347 C37.3111479,32.9016485 37.0184315,32.9603826 36.7425,32.8909346 L9.2575,32.8909346 C8.98156848,32.9603826 8.68885207,32.9016485 8.46159374,32.7312347 C8.2343354,32.5608208 8.09705863,32.2971165 8.08833335,32.0142134 C6.76583336,27.592489 5.44333333,23.1517055 4.25499999,18.5775078 C3.9675,17.376781 3.52666668,16.1951133 3.23916665,14.8800315 C2.09905522,14.8689935 1.0436254,14.2795428 0.440833329,13.3171806 C0.319062829,13.0373882 0.171487821,12.769415 0,12.516696 L0,11.4112649 L0,11.4112649 Z M23,35.6926306 L35.9183333,35.6926306 C37.0968174,35.6604971 38.0808384,36.5794376 38.1225,37.7510195 C38.1623216,38.8081261 37.4497527,39.7475812 36.4166667,40 L10.1391667,40 C9.213453,39.9876403 8.39416547,39.4013667 8.08833335,38.5324449 C7.77835358,37.6769431 8.07543604,36.720728 8.81666667,36.1881687 C9.24853146,35.8882941 9.76598759,35.7345962 10.2925,35.7498081 C14.5475,35.5973348 18.8216667,35.7498081 23.0766667,35.7498081 L23,35.6926306 Z" id="形状" fill="#FFCA28"></path>
                                <path d="M23,0 C23.7749639,0.0211978846 24.5109463,0.344628068 25.0508333,0.901246383 L25.2041667,1.05465003 C26.3733333,2.5311601 25.9325,4.31447746 24.035,5.65675936 C24.5854621,6.84198941 25.2262413,7.98309943 25.9516667,9.0699904 C27.715,12.3298178 29.4783334,15.6088207 31.2416667,18.6577181 C31.6825,19.4055609 31.97,19.539789 32.5641667,19.0987536 C35.3625,17.4688399 38.0075,15.6855225 40.7866667,14.0556088 L41.2275,13.767977 C40.6637331,13.2737176 40.296389,12.5931388 40.1925,11.8504314 C40.0915536,10.2668035 41.2596335,8.88648218 42.8375,8.72483221 C44.2204303,8.606965 45.4855244,9.50754088 45.8275,10.8533078 C45.8275,11.0067114 46,11.2368169 46,11.2368169 L46,12.3489933 C45.6848668,13.7860243 44.383391,14.7888629 42.9141667,14.7267498 C42.8452116,14.9198552 42.7938906,15.1188153 42.7608333,15.3211889 L37.9116667,31.9654842 C37.9029414,32.2501136 37.7656646,32.515427 37.5384063,32.6868808 C37.3111479,32.8583345 37.0184315,32.9174269 36.7425,32.8475551 L23,32.8475551 L23,0 Z M23,35.6663471 L35.9183333,35.6663471 C37.0968174,35.6340175 38.0808384,36.5585654 38.1225,37.7372962 C38.1623216,38.8008533 37.4497527,39.7460409 36.4166667,40 L23.1916667,40 L23,35.6663471 Z" id="形状" fill="#FFB300"></path>
                            </g>
                            <text id="VIP会员" font-family="Source-KeynoteartHans-Regular, Source-KeynoteartHans" font-size="24" font-style="condensed" font-weight="800" fill="#000000">
                                <tspan x="54" y="32">VIP会员</tspan>
                            </text>
                        </g>
                    </g>
                    <text id="已开通" font-family="Source-KeynoteartHans-Regular, Source-KeynoteartHans" font-size="22" font-style="condensed" font-weight="800" fill="#6F3D00">
                        <tspan x="359" y="53">已开通</tspan>
                    </text>
                </g>
            </g>
        </g>
    </g>
</svg>