<?xml version="1.0" encoding="UTF-8"?>
<svg width="28px" height="36px" viewBox="0 0 28 36" version="1.1" xmlns="http://www.w3.org/2000/svg" xmlns:xlink="http://www.w3.org/1999/xlink">
    <title>绑定手机号 (2)</title>
    <g id="页面-1" stroke="none" stroke-width="1" fill="none" fill-rule="evenodd">
        <g id="我的" transform="translate(-67.000000, -844.000000)" fill="#333333" fill-rule="nonzero">
            <g id="编组-11" transform="translate(60.000000, 650.000000)">
                <g id="绑定手机号-(2)" transform="translate(7.000000, 194.000000)">
                    <path d="M3.95487437,2.31576548 C3.0267791,2.31576548 2.27417241,3.09192639 2.27417241,4.04982052 L2.27417241,31.7918295 C2.27417241,32.2517008 2.45125634,32.6927013 2.7663381,33.0176058 C3.08110094,33.3427151 3.50880124,33.5254743 3.95487437,33.5254743 L24.120506,33.5254743 C24.5664065,33.5254743 24.9935616,33.3429206 25.3086434,33.0176058 C25.6239672,32.6921229 25.8008092,32.2513196 25.8008092,31.7918295 L25.8008092,4.04982052 C25.8008092,3.58994929 25.6237251,3.14894878 25.3086434,2.82363398 C24.9938882,2.49876342 24.5664092,2.31576548 24.120506,2.31576548 L3.95487437,2.31576548 Z M3.50019942,0 L24.5001994,0 C26.4333656,0 28,1.6118056 28,3.60020512 L28,32.4002051 C28,34.3881944 26.4329668,36 24.5001994,36 L3.50019942,36 C1.56703322,36 0,34.3881944 0,32.4002051 L0,3.60020512 C0,1.6118056 1.56703322,0 3.50019942,0 Z M15.7664521,29.3956584 C15.7664521,30.4224717 14.9572104,31.2552447 13.9589197,31.2552447 C12.9602302,31.2552447 12.1509885,30.4228819 12.1509885,29.3956584 C12.1509885,28.3688451 12.9602302,27.536072 13.9589197,27.536072 C14.9572104,27.536072 15.7664521,28.3688451 15.7664521,29.3956584 M18.1846049,7.52818643 L9.90433594,7.52818643 C9.35035041,7.52818643 8.90125919,6.98790952 8.90006267,6.32046037 L8.90006267,6.26056635 C8.90006267,5.5931172 9.35035041,5.0503789 9.90433594,5.0503789 L18.1846049,5.0503789 C18.7385904,5.0503789 19.1888781,5.5931172 19.1888781,6.26056635 L19.1888781,6.32046037 C19.1888781,6.98872999 18.7393881,7.53064783 18.1846049,7.53064783" id="形状"></path>
                </g>
            </g>
        </g>
    </g>
</svg>