<?xml version="1.0" encoding="UTF-8"?>
<svg width="27px" height="28px" viewBox="0 0 27 28" version="1.1" xmlns="http://www.w3.org/2000/svg" xmlns:xlink="http://www.w3.org/1999/xlink">
    <title>清理</title>
    <g id="页面-1" stroke="none" stroke-width="1" fill="none" fill-rule="evenodd">
        <g id="消息" transform="translate(-693.000000, -108.000000)" fill="#000000" fill-rule="nonzero">
            <g id="清理" transform="translate(693.000000, 108.000000)">
                <path d="M26.9854312,26.9192 L25.1392097,16.0608 L25.7621161,16.0608 C26.0057511,16.0589628 26.2385651,15.9603476 26.4088545,15.7868551 C26.5791439,15.6133625 26.6728119,15.3793546 26.6690566,15.1368 L26.6690566,8.316 C26.6728119,8.07344541 26.5791439,7.83943747 26.4088545,7.66594492 C26.2385651,7.49245236 26.0057511,7.39383721 25.7621161,7.392 L17.193286,7.392 L17.193286,0.924 C17.1970407,0.681686025 17.1035648,0.447889973 16.9335793,0.274438182 C16.7635939,0.10098639 16.5311418,0.00220816549 16.2877516,0 L10.7139343,0 C10.4705441,0.00220816549 10.2380921,0.10098639 10.0681066,0.274438182 C9.89812113,0.447889973 9.80464521,0.681686025 9.80839993,0.924 L9.80839993,7.392 L1.23816376,7.392 C0.994773524,7.39420817 0.762321478,7.4929864 0.592336024,7.66643819 C0.422350571,7.83988998 0.328874651,8.07368603 0.332629379,8.316 L0.332629379,15.1368 C0.332629379,15.6492 0.737588858,16.0608 1.23816376,16.0608 L1.86247629,16.0608 L0.0162547866,26.9192 C-0.0346830897,27.1845747 0.0354475188,27.4587643 0.207664998,27.6675565 C0.379882477,27.8763486 0.636377929,27.9981523 0.907728061,28 L26.0939579,28 C26.3642573,27.9952223 26.618845,27.8726226 26.7904187,27.664611 C26.9619923,27.4565993 27.0332781,27.1841181 26.9854312,26.9192 Z M2.77222899,9.8784 L12.2465935,9.8784 L12.2465935,2.4864 L14.7550925,2.4864 L14.7550925,9.8784 L24.2294569,9.8784 L24.2294569,13.5744 L2.77222899,13.5744 L2.77222899,9.8784 Z M19.0746602,25.5122 L19.0746602,19.9696 C19.0762253,19.8147237 18.9517934,19.6877039 18.7962506,19.6854 L17.1229805,19.6854 C16.9674377,19.6877039 16.8430058,19.8147237 16.8445709,19.9696 L16.8445709,25.5136 L10.1571151,25.5136 L10.1571151,19.9696 C10.1578646,19.894967 10.1288044,19.8230947 10.0763279,19.769796 C10.0238515,19.7164974 9.95225808,19.6861389 9.8772993,19.6854 L8.20543533,19.6854 C8.04989252,19.6877039 7.92546061,19.8147237 7.92702569,19.9696 L7.92702569,25.5136 L2.73004571,25.5136 L4.30066981,16.2736 L22.6967978,16.2736 L24.268828,25.5136 L19.0746602,25.5136 L19.0746602,25.5122 Z" id="形状"></path>
            </g>
        </g>
    </g>
</svg>