<?xml version="1.0" encoding="UTF-8"?>
<svg width="34px" height="38px" viewBox="0 0 34 38" version="1.1" xmlns="http://www.w3.org/2000/svg" xmlns:xlink="http://www.w3.org/1999/xlink">
    <title>用户_收益</title>
    <g id="页面-1" stroke="none" stroke-width="1" fill="none" fill-rule="evenodd">
        <g id="我的" transform="translate(-63.000000, -746.000000)" fill="#333333" fill-rule="nonzero">
            <g id="编组-11" transform="translate(60.000000, 650.000000)">
                <g id="用户_收益" transform="translate(3.000000, 96.000000)">
                    <path d="M16.9988134,38 C7.62490403,38 0,32.1709294 0,25.0069754 C0,20.1211588 3.77329518,13.1363037 9.54952188,9.58775844 C8.65722063,8.60152077 8.18021917,7.45051216 8.18021917,6.22786401 C8.18021917,2.73663043 12.0792908,0 17.0557688,0 C22.0346199,0 25.9313185,2.73663043 25.9313185,6.22786401 C25.9313185,7.46961604 25.4400782,8.63495255 24.5169261,9.63074216 C30.2528094,13.1912273 34,20.1498146 34,25.0069754 C34,32.1709294 26.3727228,38 16.9988134,38 Z M17.0533957,2.38559668 C13.5292804,2.38559668 10.5509876,4.1431534 10.5509876,6.22547603 C10.5509876,7.48394395 11.6402596,8.37705021 12.2905005,8.79733551 C12.6518609,9.03396196 12.8579703,9.44858582 12.8294221,9.88146782 C12.8008739,10.3143498 12.5421237,10.6979319 12.1528582,10.8844341 C6.39087038,13.6043486 2.37314162,20.5104003 2.37314162,25.0069754 C2.37314162,30.8551499 8.9348782,35.6120153 16.9988134,35.6120153 C25.0627487,35.6120153 31.6268584,30.8551499 31.6268584,25.0069754 C31.6268584,20.5366681 27.6304879,13.6473324 21.8993509,10.9130899 C21.508812,10.726206 21.249912,10.3406811 21.2232744,9.90635211 C21.1966367,9.47202315 21.4064624,9.05739024 21.7712012,8.82360334 C22.438054,8.40093006 23.5558037,7.49827185 23.5558037,6.22786401 C23.5581769,4.14554138 20.5798841,2.38559668 17.0533957,2.38559668 Z" id="形状"></path>
                    <path d="M16.8632145,21 C16.5609535,21 16.2709639,20.8804447 16.0566115,20.6673446 L12.3198067,16.930668 C11.8880551,16.4836579 11.8942298,15.773113 12.3336846,15.3336732 C12.7731395,14.8942334 13.4837087,14.888059 13.9307341,15.3197958 L17.6675389,19.0564724 C17.9923071,19.3822447 18.0892871,19.871359 17.9133867,20.2963953 C17.7374864,20.7214317 17.3232233,20.9989837 16.8632145,21 Z" id="路径"></path>
                    <path d="M17.1390619,21 C16.6786382,20.9999013 16.2635337,20.7226864 16.0870497,20.2974445 C15.9105656,19.8722026 16.0073994,19.3825377 16.3324585,19.0564716 L20.069265,15.3197957 C20.5162906,14.888059 21.2268602,14.8942334 21.6663152,15.3336731 C22.1057703,15.7731128 22.1119449,16.4836576 21.6801931,16.9306676 L17.9433867,20.6673435 C17.7301583,20.8807336 17.4407316,21.0004357 17.1390619,21 L17.1390619,21 Z" id="路径"></path>
                    <path d="M20.8220176,22.4982156 L12.1779824,22.4982156 C11.5274007,22.4982156 11,21.938971 11,21.2491078 C11,20.5592446 11.5274007,20 12.1779824,20 L20.8220176,20 C21.4725993,20 22,20.5592446 22,21.2491078 C22,21.938971 21.4725993,22.4982156 20.8220176,22.4982156 Z M20.8220176,27 L12.1779824,27 C11.5274007,27 11,26.4407554 11,25.7508922 C11,25.061029 11.5274007,24.5017844 12.1779824,24.5017844 L20.8220176,24.5017844 C21.4725993,24.5017844 22,25.061029 22,25.7508922 C22,26.4407554 21.4725993,27 20.8220176,27 Z" id="形状"></path>
                    <path d="M17,31 C16.4477153,31 16,30.4885592 16,29.8576651 L16,22.1423349 C16,21.5114408 16.4477153,21 17,21 C17.5522847,21 18,21.5114408 18,22.1423349 L18,29.8576651 C18,30.4885592 17.5522847,31 17,31 Z" id="路径"></path>
                </g>
            </g>
        </g>
    </g>
</svg>