<?xml version="1.0" encoding="UTF-8"?>
<svg width="55px" height="46px" viewBox="0 0 55 46" version="1.1" xmlns="http://www.w3.org/2000/svg" xmlns:xlink="http://www.w3.org/1999/xlink">
    <title>编组 69备份</title>
    <g id="页面-1" stroke="none" stroke-width="1" fill="none" fill-rule="evenodd">
        <g id="我的" transform="translate(-265.000000, -489.000000)">
            <g id="编组-11" transform="translate(85.000000, 485.000000)">
                <g id="编组-8" transform="translate(164.000000, 7.000000)">
                    <g id="编组-69备份" transform="translate(19.000000, 0.000000)">
                        <path d="M48.6657996,18.4893494 C51.297652,10.0183997 50.0357975,4.30903445 44.8802362,1.36125355 C40.126291,-1.35689639 34.3664913,-0.00434670759 27.6008373,5.41890259 L27.603324,5.42200687 C26.5678563,6.25150268 25.1104991,6.30233462 24.0197532,5.54700016 C14.9529461,-0.751819024 8.14298811,-1.58529254 3.58993328,3.0465016 C-3.6952776,10.457701 1.34024723,23.0288531 7.77331013,30.1443072 C12.0620187,34.8879432 18.0924491,38.5065075 25.8646013,41" id="路径-13" stroke="#000000" stroke-width="4" stroke-linecap="round"></path>
                        <rect id="矩形" fill="#000000" x="28" y="30" width="21" height="4" rx="2"></rect>
                        <path d="M30,30 L47,30 C48.1045695,30 49,30.8954305 49,32 C49,33.1045695 48.1045695,34 47,34 L30,34 C28.8954305,34 28,33.1045695 28,32 C28,30.8954305 28.8954305,30 30,30 Z" id="矩形备份-12" fill="#000000" transform="translate(38.500000, 32.000000) rotate(-270.000000) translate(-38.500000, -32.000000) "></path>
                        <path d="M17,14 C18.4861821,18 21.3195155,20 25.5,20 C29.6804845,20 32.5138179,18 34,14" id="路径-14" stroke="#DD8DFF" stroke-width="4" stroke-linecap="round"></path>
                    </g>
                </g>
            </g>
        </g>
    </g>
</svg>