<?xml version="1.0" encoding="UTF-8"?>
<svg width="42px" height="38px" viewBox="0 0 42 38" version="1.1" xmlns="http://www.w3.org/2000/svg" xmlns:xlink="http://www.w3.org/1999/xlink">
    <title>动漫</title>
    <g id="页面-1" stroke="none" stroke-width="1" fill="none" fill-rule="evenodd">
        <g id="我的" transform="translate(-51.000000, -1573.000000)" fill="#B5B8C0">
            <g id="编组-26" transform="translate(0.000000, 1528.000000)">
                <g id="编组-20" transform="translate(0.000000, 19.000000)">
                    <g id="编组-18" transform="translate(50.000000, 19.112585)">
                        <g id="动漫" transform="translate(1.000000, 6.887415)">
                            <path d="M42,9.38035264 C42,4.2115869 37.6804601,0 32.3792065,0 C29.2377229,0 26.1944107,1.53148615 24.4273262,4.11586902 C22.1693848,3.6372796 19.8132721,3.6372796 17.5553308,4.11586902 C14.61019,-0.191435768 8.62173686,-1.24433249 4.20402556,1.62720403 C-0.213685735,4.49874055 -1.29357072,10.3375315 1.65157015,14.6448363 C2.24059832,15.5062972 3.02596922,16.2720403 3.90951148,16.8463476 C3.61499739,18.186398 3.41865467,19.5264484 3.41865467,20.8664987 C3.41865467,30.3425693 11.2723636,38 20.9913285,38 C30.7102933,38 38.5640023,30.3425693 38.5640023,20.8664987 C38.5640023,19.5264484 38.3676596,18.186398 38.0731455,16.8463476 C40.5274296,15.1234257 42,12.3476071 42,9.38035264 Z M34.9316619,14.2619647 C34.0481197,14.6448363 33.6554342,15.697733 33.9499483,16.559194 C36.4042324,23.4508816 32.6737206,31.1083123 25.6053825,33.5012594 C18.5370444,35.8942065 10.6833355,32.256927 8.22905141,25.3652393 C7.7381946,23.929471 7.44368051,22.3979849 7.44368051,20.8664987 C7.44368051,19.4307305 7.64002324,17.9949622 8.13088005,16.6549118 C8.42539414,15.7934509 8.03270869,14.7405542 7.14916643,14.3576826 C5.18573918,13.4005038 3.90951148,11.4861461 3.90951148,9.38035264 C3.90951148,6.31738035 6.36379553,3.82871537 9.50527912,3.73299748 C11.7632204,3.73299748 13.9229904,4.97732997 14.8065327,7.08312343 C15.1992181,7.94458438 16.1809317,8.4231738 17.1626454,8.13602015 C19.7151008,7.37027708 22.3657276,7.37027708 24.918183,8.13602015 C25.8998966,8.4231738 26.8816102,7.94458438 27.2742957,7.08312343 C28.5505234,4.30730479 31.8883497,3.06297229 34.7353192,4.30730479 C37.5822887,5.55163728 38.8585164,8.80604534 37.5822887,11.581864 C36.9932605,12.7304786 36.1097183,13.6876574 34.9316619,14.2619647 Z" id="形状" fill-rule="nonzero"></path>
                            <rect id="矩形" x="19" y="15" width="4" height="12" rx="2"></rect>
                        </g>
                    </g>
                </g>
            </g>
        </g>
    </g>
</svg>