<?xml version="1.0" encoding="UTF-8"?>
<svg width="39px" height="20px" viewBox="0 0 39 20" version="1.1" xmlns="http://www.w3.org/2000/svg" xmlns:xlink="http://www.w3.org/1999/xlink">
    <title>编组 7</title>
    <g id="页面-1" stroke="none" stroke-width="1" fill="none" fill-rule="evenodd">
        <g id="小说详情" transform="translate(-359.000000, -624.000000)" fill-rule="nonzero">
            <g id="编组-8" transform="translate(29.000000, 621.000000)">
                <g id="编组-14" transform="translate(252.000000, 0.000000)">
                    <g id="VIP-(1)" transform="translate(78.000000, 0.000000)">
                        <g id="编组-7" transform="translate(0.000000, 3.000000)">
                            <path d="M31.2,0 L7.2,0 C3.2235498,0 0,3.2235498 0,7.2 L0,12 C0,15.9764502 3.2235498,19.2 7.2,19.2 L31.2,19.2 C35.1764502,19.2 38.4,15.9764502 38.4,12 L38.4,7.2 C38.4,5.29044127 37.6414307,3.4590931 36.2911688,2.10883118 C34.9409069,0.758569251 33.1095587,0 31.2,0 L31.2,0 Z" id="形状" fill="#FFB14E"></path>
                            <g id="火花" transform="translate(21.000000, 3.000000)" fill="#FFFFFF">
                                <path d="M6.91022726,0.0262817723 C7.1151386,-0.0423140694 7.34032516,0.0262661136 7.47460126,0.198160908 C7.60887736,0.370055703 7.62384298,0.608908556 7.51210884,0.796786054 C6.63364459,2.27378596 6.89608381,3.330729 8.36228625,4.21724899 L8.50136333,4.30526089 C11.7959972,6.44795088 12.1236533,12.1199185 7.71954584,13.8065468 C7.65354316,13.8313502 7.56868257,13.8617543 7.46339258,13.8969591 L7.22688297,13.9745696 C7.07028739,14.0250531 6.89943904,13.9965159 6.76688835,13.8977355 C6.63433766,13.7989551 6.55595723,13.6417603 6.55585572,13.4745019 L6.55585572,13.2328692 C6.55585572,12.5117086 5.98173352,11.9270925 5.27351791,11.9270925 C4.56530229,11.9270925 3.9911801,12.5117086 3.9911801,13.2328692 L3.9911801,13.4745019 C3.9911801,13.8425517 3.62973683,14.096186 3.29186598,13.9649683 C3.14876374,13.9123271 3.00958586,13.8492208 2.87542048,13.7761427 C0.545682967,12.4303606 -0.267564357,10.2588667 0.0750209949,7.75532784 C0.192882926,6.89041077 0.449036183,6.04069577 0.766477663,5.33420016 C0.894554301,5.05016171 1.02498816,4.80852902 1.13656413,4.64610702 C1.214353,4.53409187 1.28349867,4.45408103 1.37778822,4.39167259 C1.76594684,4.13323762 2.21225069,4.42927767 2.21303642,4.8557354 C2.21460791,5.80546393 2.39925827,6.62317462 2.76384453,7.3168685 C2.9060646,7.5873051 3.22350606,7.70892157 3.50558894,7.60010684 L3.58966378,7.5681025 C3.81948438,7.47951902 3.9357457,7.2184252 3.84974578,6.98402344 L3.7719569,6.78239615 C2.52419192,3.47394837 3.60459296,1.13763218 6.91022726,0.0262817723 L6.91022726,0.0262817723 Z" id="路径"></path>
                            </g>
                        </g>
                    </g>
                </g>
            </g>
        </g>
    </g>
</svg>