<?xml version="1.0" encoding="UTF-8"?>
<svg width="170px" height="86px" viewBox="0 0 170 86" version="1.1" xmlns="http://www.w3.org/2000/svg" xmlns:xlink="http://www.w3.org/1999/xlink">
    <title>编组 7</title>
    <defs>
        <linearGradient x1="-5.67254577e-14%" y1="50%" x2="100%" y2="50%" id="linearGradient-1">
            <stop stop-color="#F749A1" offset="0%"></stop>
            <stop stop-color="#FF3269" offset="100%"></stop>
        </linearGradient>
        <filter x="-10.7%" y="-26.8%" width="121.4%" height="153.6%" filterUnits="objectBoundingBox" id="filter-2">
            <feGaussianBlur stdDeviation="5" in="SourceGraphic"></feGaussianBlur>
        </filter>
    </defs>
    <g id="页面-1" stroke="none" stroke-width="1" fill="none" fill-rule="evenodd">
        <g id="小说详情" transform="translate(-565.000000, -395.000000)">
            <g id="编组-12备份-5" transform="translate(0.000000, 180.000000)">
                <g id="编组-7" transform="translate(580.000000, 225.000000)">
                    <path d="M34.1042788,5 L121,5 C131.49341,5 140,13.5065898 140,24 L140,42 C140,52.4934102 131.49341,61 121,61 L15.8516605,61 C9.77652826,61 4.85166051,56.0751322 4.85166051,50 C4.85166051,48.6856267 5.08722428,47.3818919 5.54718025,46.1506252 L16.3056311,17.3510799 C19.0802636,9.92360193 26.1754697,5 34.1042788,5 Z" id="矩形" fill="url(#linearGradient-1)" opacity="0.367513021" filter="url(#filter-2)"></path>
                    <path d="M28,0 L112,0 C127.463973,-2.84068575e-15 140,12.536027 140,28 C140,43.463973 127.463973,56 112,56 L28,56 C12.536027,56 1.8937905e-15,43.463973 0,28 C-1.8937905e-15,12.536027 12.536027,2.84068575e-15 28,0 Z" id="矩形" fill="url(#linearGradient-1)"></path>
                    <g id="编组-4" transform="translate(29.000000, 12.000000)" fill="#FFFFFF">
                        <text id="喜欢" font-family="PingFangSC-Medium, PingFang SC" font-size="24" font-weight="400">
                            <tspan x="33" y="25">喜欢</tspan>
                        </text>
                        <g id="责任心" transform="translate(0.000000, 5.000000)" fill-rule="nonzero">
                            <path d="M13.4631263,22 L12.8526342,21.5982352 C12.655356,21.4683667 7.95742825,18.3536552 2.1475172,12.5576492 L1.76228926,12.1721806 L1.77675174,12.1578901 C-0.711483938,9.26894401 -0.584639827,4.88726301 2.14714156,2.15451009 C4.73837761,-0.436032561 8.83789328,-0.725267685 11.7664455,1.47583466 L11.8152172,1.42725935 L12.4937017,2.10323963 C12.511065,2.12020443 12.528324,2.13729458 12.5454787,2.15451009 C12.5509882,2.16002574 12.5564351,2.16554138 12.5618194,2.17105703 L13.497999,3.10740098 L15.1606837,1.44399433 L15.2107702,1.49300838 C18.1430384,-0.716669088 22.25258,-0.429316533 24.8495452,2.16698297 C27.5935978,4.91227146 27.7126785,9.31852216 25.2001509,12.2070921 L25.2126725,12.2196277 L25.198523,12.2339183 L25.1868153,12.2222602 L25.1863771,12.2227616 L25.1979596,12.2342943 L25.1863145,12.2228243 L25.1833093,12.2262716 L25.1946413,12.2375536 L25.1896953,12.232602 L25.1946413,12.2375536 L25.1833093,12.2262716 L25.1788641,12.2313485 L25.1898205,12.2423798 L25.1870031,12.2395593 L25.1898205,12.2423798 L25.1788015,12.2314111 L25.1898205,12.2423798 L25.1788015,12.2314111 L25.1898205,12.2423171 L25.1788015,12.2314111 L25.1898205,12.2423171 L25.1865649,12.2391205 L25.1898205,12.2423798 L25.1787389,12.2314738 C25.1771822,12.2331996 25.1756585,12.2349549 25.1741685,12.2367388 L25.1848119,12.2473313 L25.1843736,12.2478327 L24.8497957,12.5825323 C18.975586,18.448424 14.276281,21.4797741 14.0788775,21.6061953 L13.4631263,22 Z M7.34631011,2.2537691 C5.28844964,2.25265148 3.43183426,3.49063331 2.63978839,5.39207685 C1.84774253,7.2935204 2.27570715,9.48526263 3.7246791,10.9481455 C8.18569757,15.4010285 12.0320292,18.266345 13.4790288,19.2921302 C14.9298474,18.2839574 18.7843807,15.458316 23.2760772,10.969644 C25.246213,8.9637344 25.2277241,5.74135279 23.2347008,3.75823299 C21.2416775,1.7751132 18.0228249,1.77623995 16.0311874,3.76075456 L16.0212953,3.77147247 C16.0071458,3.7866405 15.9928712,3.80180854 15.9783461,3.81678853 L15.1894834,4.63028395 L15.175647,4.61674554 L13.4983121,6.2948188 L11.8141529,4.61003902 L11.8020695,4.62207316 L11.0055686,3.80425297 C10.9909809,3.78927297 10.9767689,3.77410494 10.9626194,3.75893691 L10.9500978,3.74558653 C9.99578375,2.78685347 8.69828118,2.24974981 7.34631011,2.2537691 Z M24.2853832,11.3247765 L24.4442067,11.4819193 L24.2853832,11.3247765 Z M24.2853832,11.3247765 L24.4442067,11.4819193 L24.2853832,11.3247765 Z M6.36430128,7.33219939 L4.10946878,7.33219939 C4.10946878,4.81129749 6.20684179,3.68848704 7.3163208,3.4469894 L7.79289404,5.66653634 L7.80328699,5.66421726 C7.51314377,5.74457999 7.24008291,5.87726915 6.99752011,6.0557656 C6.56564909,6.37974725 6.36455172,6.78533542 6.36455172,7.33232475 L6.36430128,7.33219939 Z" id="形状"></path>
                        </g>
                    </g>
                </g>
            </g>
        </g>
    </g>
</svg>