<?xml version="1.0" encoding="UTF-8"?>
<svg width="18px" height="18px" viewBox="0 0 18 18" version="1.1" xmlns="http://www.w3.org/2000/svg" xmlns:xlink="http://www.w3.org/1999/xlink">
    <title>点赞</title>
    <g id="页面-1" stroke="none" stroke-width="1" fill="none" fill-rule="evenodd">
        <g id="小说详情" transform="translate(-355.000000, -426.000000)" fill="#909090" fill-rule="nonzero">
            <g id="编组-12备份-5" transform="translate(0.000000, 180.000000)">
                <g id="编组-9" transform="translate(355.000000, 240.000000)">
                    <g id="点赞" transform="translate(0.000000, 6.000000)">
                        <path d="M9.62281307,0 C8.1155719,0 6.91946961,1.22400001 6.91946961,2.81376001 C6.91946961,3.73896 6.15044783,5.20956001 5.29524852,5.94468001 C4.6715864,6.48072001 3.3076283,6.89868001 1.23832981,7.13988 L1.16911093,7.1496 C0.499922523,7.26333033 0.00841415046,7.86449481 0.00796416654,8.5698 L0.00311885152,16.4682 L0.00208056828,16.4736 C-0.00138038261,16.4988 9.60788384e-07,16.52148 0.00242666945,16.55424 L0.00415713476,16.62624 C0.0408752676,17.3928058 0.649280391,17.9946151 1.38715041,17.99424 L13.7998265,17.99712 L13.8067484,17.9982 C13.8237071,17.99928 13.8410118,18 13.8583165,18 C14.3746894,18 14.8837942,17.8488 15.3271412,17.55648 L15.4223171,17.49168 C15.7649998,17.2444514 16.0479966,16.9180475 16.2491367,16.53804 L16.2816696,16.47324 L16.2484445,16.52616 C16.3425822,16.389 16.4111089,16.23456 16.4533324,16.0704 L17.9553822,9.17496001 L17.9709564,9.10656 C17.9896455,9.01188001 17.998644,8.90496001 17.9958752,8.79588001 L17.9944908,8.77284 L17.9920682,8.82504001 C18.0365861,8.22260375 17.8928611,7.62132203 17.5822924,7.11072 L17.5293399,7.02504001 C17.060382,6.29568001 16.2920524,5.84208001 15.45485,5.77620001 L15.4005132,5.7726 L15.3797475,5.76972001 C15.3288793,5.76323109 15.277677,5.75998503 15.2264277,5.76000001 L12.2770111,5.75784001 L12.3143893,5.57100001 C12.4114971,5.04954013 12.4602892,4.51959279 12.4600951,3.98844 C12.4600951,3.38724001 12.3943371,2.78711999 12.2680127,2.18844001 L12.2538228,2.13156001 C12.2483212,2.1128231 12.2420863,2.09432769 12.2351337,2.07612001 L12.225443,2.05416 L12.2115993,2.00232 C11.867364,0.814252722 10.8157354,0.000861134879 9.62281307,0 L9.62281307,0 Z M9.62281307,1.44000001 C10.2122185,1.44085947 10.7298102,1.84766096 10.8915952,2.43720001 L10.9230898,2.56212001 L10.9355492,2.5974 L10.9161679,2.49768001 C11.1847604,3.74068626 11.1136698,5.03706569 10.7109339,6.24024 L10.6957058,6.29064001 C10.639992,6.50675829 10.6840405,6.7375363 10.8149006,6.91512429 C10.9457607,7.09271227 11.1485575,7.19692372 11.363668,7.19712 L15.2198519,7.20000001 L15.2523848,7.20504001 L15.3015302,7.209 C15.7545015,7.22486062 16.1700305,7.47466225 16.4093784,7.87500001 C16.5476177,8.100631 16.6192136,8.36347548 16.6154565,8.63100001 L16.6097671,8.77608 L16.6118437,8.82936001 L15.1153314,15.6996 L15.0924892,15.73632 L15.0672243,15.7842 C14.9598922,16.0109538 14.794661,16.2026262 14.589614,16.33824 L14.5141654,16.38468 C14.3386692,16.4854461 14.143869,16.5444637 13.9438018,16.55748 L13.90054,16.55856 L13.8590087,16.55712 L1.38680431,16.55424 L1.39199572,8.57088 C3.70805953,8.30124001 5.29109539,7.81596 6.17675099,7.05492001 C7.30051956,6.08868001 8.25227919,4.30020001 8.30177068,2.92428001 L8.30350117,2.81376001 C8.30350117,2.02464001 8.87455695,1.44000001 9.62246696,1.44000001 L9.62281307,1.44000001 Z" id="形状"></path>
                        <path d="M4,9.80000002 L4,14.2 C4,14.6418278 3.77614237,15 3.5,15 L3,15 L3,9 L3.5,9 C3.63260825,9 3.75978521,9.08428547 3.8535534,9.23431458 C3.94732159,9.38434369 4,9.58782682 4,9.80000002 Z" id="路径"></path>
                    </g>
                </g>
            </g>
        </g>
    </g>
</svg>