<?xml version="1.0" encoding="UTF-8"?>
<svg width="52px" height="62px" viewBox="0 0 52 62" version="1.1" xmlns="http://www.w3.org/2000/svg" xmlns:xlink="http://www.w3.org/1999/xlink">
    <title>编组 46</title>
    <defs>
        <linearGradient x1="50%" y1="0%" x2="50%" y2="100%" id="linearGradient-1">
            <stop stop-color="#FF1370" offset="0%"></stop>
            <stop stop-color="#FF61BF" offset="98.9697645%"></stop>
            <stop stop-color="#FF2BA9" offset="100%"></stop>
        </linearGradient>
    </defs>
    <g id="页面-1" stroke="none" stroke-width="1" fill="none" fill-rule="evenodd">
        <g id="首页1备份-11" transform="translate(-642.000000, -520.000000)" fill-rule="nonzero">
            <g id="编组-25" transform="translate(56.000000, 518.000000)">
                <g id="app" transform="translate(586.000000, 2.000000)">
                    <path d="M37,56.8345856 C37,59.6879672 34.7161617,62 31.8978437,62 L5.10407156,62 C2.28575357,62 0,59.6879672 0,56.8345856 L0,5.1673534 C0,2.31397185 2.28575357,0 5.10407156,0 L31.8978437,0 C34.7161617,0 37,2.31397185 37,5.1673534 L37,56.8345856 Z" id="路径" fill="url(#linearGradient-1)"></path>
                    <path d="M21,56.5008209 C21,57.8812796 19.8813058,59 18.5008795,59 C17.1204531,59 16,57.8813969 16,56.5008209 C16,55.1204794 17.1204531,54 18.5008795,54 C19.8813058,54 21,55.1203621 21,56.5008209 Z" id="路径" fill="#FFFFFF"></path>
                    <path d="M17,15.699378 C17,16.4173789 16.4171404,17 15.6992682,17 L5.30060981,17 C4.58273759,17 4,16.4173789 4,15.699378 L4,5.30062202 C4,4.5826211 4.58273759,4 5.30060981,4 L15.6993902,4 C16.4172624,4 17,4.5826211 17,5.30062202 L17,15.699378 L17,15.699378 Z" id="路径" fill="#FFAAD8"></path>
                    <g id="编组-3" transform="translate(10.000000, 9.000000)" fill="#B00047">
                        <path d="M29.5136091,7.14987239 C28.8584388,5.6674398 27.2886345,4.93862701 25.8203489,5.6063388 C24.3482052,6.27221755 23.2000295,8.23355982 23.8550792,9.71403718 L23.2752644,8.39572189 C22.6200941,6.91707756 20.5947812,6.39234213 19.1264957,7.06017611 C17.6553165,7.72593267 16.6916109,9.60344436 17.3447315,11.0839217 L16.4619276,9.08640765 C15.8162822,7.62291637 13.8133951,7.10392443 12.3545139,7.73363139 C12.2886834,7.7584384 12.2227323,7.78324541 12.1569018,7.81379591 C10.6868078,8.47955247 9.73612362,10.3513207 10.3893648,11.8319202 L5.90167749,1.66080249 C5.24855689,0.180325129 3.32837989,-0.390113855 1.85828582,0.275642698 C0.388071183,0.941521452 -0.42504408,2.75218864 0.228076528,4.232666 L9.26361492,24.706513 L6.17838264,23.0141374 C4.55010245,22.1193743 2.50393117,22.7317285 1.60979374,24.3802337 C0.713727222,26.0286166 1.31054225,28.0911421 2.94063097,28.9859052 L17.3843986,36.9132718 L18.6672495,38.3557444 C19.1116657,38.9472021 19.9171852,39.1741312 20.6175687,38.8556728 L34.9991229,32.3361955 C34.9991229,32.3361955 35.0028605,32.3342403 35.0028605,32.3304521 C35.014194,32.3266638 35.0255275,32.3228755 35.040478,32.3189651 C35.7107193,32.0137044 36.079539,31.3039552 35.9854954,30.6037376 C35.9854954,30.5922507 35.9854954,30.5808859 35.9817578,30.5713541 C32.8191204,12.9804969 29.5136091,7.14987239 29.5136091,7.14987239 L29.5136091,7.14987239 Z" id="路径"></path>
                        <polygon id="路径" points="37.7133508 29 16 38.5634117 20.2856642 48 42 38.4365883"></polygon>
                    </g>
                </g>
            </g>
        </g>
    </g>
</svg>