<?xml version="1.0" encoding="UTF-8"?>
<svg width="24px" height="18px" viewBox="0 0 24 18" version="1.1" xmlns="http://www.w3.org/2000/svg" xmlns:xlink="http://www.w3.org/1999/xlink">
    <title>眼睛</title>
    <g id="页面-1" stroke="none" stroke-width="1" fill="none" fill-rule="evenodd">
        <g id="小说详情" transform="translate(-245.000000, -426.000000)" fill="#909090" fill-rule="nonzero">
            <g id="编组-12备份-5" transform="translate(0.000000, 180.000000)">
                <g id="眼睛" transform="translate(245.000000, 246.000000)">
                    <path d="M12,18 C7.59993409,18 3.67446451,15.2232 0.232291166,9.79860001 C-0.0774303885,9.31124552 -0.0774303885,8.68875448 0.232291166,8.20139999 C3.67446451,2.77680001 7.59993409,0 12,0 C16.4000659,0 20.3255355,2.77680001 23.7677088,8.20139999 C24.0774304,8.68875448 24.0774304,9.31124552 23.7677088,9.79860001 C20.3255355,15.2232 16.4000659,18 12,18 Z M12,1.8 C8.35742821,1.8 4.98395437,4.15830001 1.87177848,9 C4.98395437,13.8417 8.35742821,16.2 12,16.2 C15.6425718,16.2 19.0160456,13.8417 22.1282215,9 C19.0160456,4.15830001 15.6425718,1.8 12,1.8 Z M12,13.2 C9.65971812,13.2 7.76253282,11.3196 7.76253282,9 C7.76253282,6.68040002 9.65971812,4.80000001 12,4.80000001 C14.3402819,4.80000001 16.2374672,6.68040002 16.2374672,9 C16.2374672,11.3196 14.3402819,13.2 12,13.2 Z M12,11.4 C13.3373896,11.4 14.4215812,10.3254 14.4215812,9 C14.4215812,7.67460001 13.3373896,6.60000001 12,6.60000001 C10.6626104,6.60000001 9.57841877,7.67460001 9.57841877,9 C9.57841877,10.3254 10.6626104,11.4 12,11.4 Z" id="形状"></path>
                </g>
            </g>
        </g>
    </g>
</svg>