<?xml version="1.0" encoding="UTF-8"?>
<svg width="59px" height="32px" viewBox="0 0 59 32" version="1.1" xmlns="http://www.w3.org/2000/svg" xmlns:xlink="http://www.w3.org/1999/xlink">
    <title>编组 32</title>
    <g id="页面-1" stroke="none" stroke-width="1" fill="none" fill-rule="evenodd">
        <g id="首页1备份-11" transform="translate(-118.000000, -1449.000000)">
            <g id="编组-32" transform="translate(118.166667, 1449.000000)">
                <rect id="矩形" fill="#FFFFFF" x="0" y="0" width="58.6666667" height="32" rx="16"></rect>
                <g id="火花" transform="translate(30.833333, 5.000000)" fill="#FF0000" fill-rule="nonzero">
                    <path d="M9.42303717,0.0356681196 C9.70246172,-0.057426237 10.0095343,0.0356468685 10.1926381,0.268932661 C10.3757419,0.502218454 10.3961495,0.826375898 10.2437848,1.0813525 C9.04587899,3.08585238 9.40375065,4.52027507 11.4031176,5.72340934 L11.5927682,5.84285407 C16.0854507,8.75079048 16.5322546,16.4484609 10.5266534,18.7374564 C10.4366498,18.7711181 10.3209308,18.8123808 10.1773535,18.8601587 L9.85484041,18.9654873 C9.64130099,19.0340006 9.40832596,18.9952715 9.22757502,18.8612125 C9.04682408,18.7271534 8.93994167,18.5138176 8.93980325,18.286824 L8.93980325,17.9588939 C8.93980325,16.980176 8.15690935,16.1867683 7.19116078,16.1867683 C6.22541221,16.1867683 5.44251831,16.980176 5.44251831,17.9588939 L5.44251831,18.286824 C5.44251831,18.7863202 4.94964114,19.1305382 4.48890815,18.9524569 C4.29376874,18.8810153 4.10398072,18.7953711 3.92102792,18.6961937 C0.744113136,16.8697751 -0.364860487,13.9227476 0.102301357,10.5250878 C0.263022172,9.35127176 0.612322068,8.19808712 1.04519681,7.23927165 C1.21984677,6.8537909 1.39771113,6.52586081 1.54986017,6.30543096 C1.65593591,6.15341039 1.75022546,6.04482426 1.87880212,5.96012708 C2.40810932,5.60939391 3.01670549,6.01116255 3.01777694,6.58992662 C3.01991988,7.87884391 3.27171583,8.98859412 3.7688789,9.93003582 C3.96281536,10.2970569 4.39569008,10.4621078 4.78034856,10.3144307 L4.89499606,10.2709962 C5.20838779,10.1507758 5.36692596,9.7964342 5.24965333,9.47831753 L5.1435776,9.20468049 C3.44207989,4.71464422 4.91535404,1.54392939 9.42303717,0.0356681196 L9.42303717,0.0356681196 Z" id="路径"></path>
                </g>
            </g>
        </g>
    </g>
</svg>