<?xml version="1.0" encoding="UTF-8"?>
<svg width="28px" height="24px" viewBox="0 0 28 24" version="1.1" xmlns="http://www.w3.org/2000/svg" xmlns:xlink="http://www.w3.org/1999/xlink">
    <title>刷新</title>
    <g id="页面-1" stroke="none" stroke-width="1" fill="none" fill-rule="evenodd">
        <g id="首页1备份-11" transform="translate(-594.000000, -844.000000)" fill="#6E6E6E" fill-rule="nonzero">
            <g id="编组-28" transform="translate(30.000000, 834.000000)">
                <g id="编组-60" transform="translate(478.000000, 4.000000)">
                    <g id="刷新" transform="translate(86.000000, 6.000000)">
                        <path d="M19.0491928,19.4702999 C17.3243832,20.7159938 15.2111815,21.2863426 13.1019956,21.0754363 C13.0034952,21.0660385 12.9068532,21.0491226 12.8064942,21.0359657 C12.6169273,21.009652 12.4273604,20.9852178 12.243369,20.9476268 C12.1299359,20.924407 12.0171456,20.8980836 11.9051222,20.8686857 C11.7244476,20.8283334 11.5452925,20.7813132 11.3680159,20.7277194 C11.2843835,20.7014057 11.200751,20.6713329 11.11526,20.64126 C10.8664047,20.5573251 10.6214497,20.4619961 10.3811529,20.3555683 C10.1502128,20.2536535 9.92387154,20.141396 9.70280072,20.0191287 L9.67306473,20.0040923 C8.68232994,19.4458881 7.80413002,18.7043837 7.08417546,17.8181748 C7.04886397,17.7749451 7.01541099,17.7260768 6.98009951,17.6809676 C5.71361703,16.0642158 5.02520664,14.0617064 5.02681693,11.9990856 L7.09346795,11.9990856 C7.14891256,11.999135 7.19977827,11.96798 7.22542139,11.9182649 C7.25204023,11.8696209 7.24916132,11.8099347 7.21798739,11.7641418 L3.74816954,6.4299767 C3.72088056,6.38659248 3.67356328,6.3603185 3.62272085,6.3603185 C3.57187842,6.3603185 3.52456114,6.38659248 3.49727216,6.4299767 L0.0255958038,11.7641418 C-0.0041401821,11.8073714 -0.00971567946,11.8675171 0.0181618073,11.9182649 C0.0460392941,11.9690128 0.0962187703,11.9990856 0.150115245,11.9990856 L2.21676627,11.9990856 C2.21676627,14.5252018 2.9861849,16.8652426 4.29085128,18.7993003 C4.30757777,18.8274936 4.31872877,18.8556868 4.33545526,18.8820005 C4.4711257,19.0793534 4.62166413,19.2635493 4.76662706,19.4515044 C4.82052353,19.5210478 4.87256151,19.5943503 4.92831648,19.6638936 C5.14204388,19.9307899 5.36878077,20.177011 5.60295166,20.4232322 L5.66799913,20.490896 C6.6903006,21.5409116 7.89975896,22.3858983 9.23260044,22.9813007 L9.44818634,23.0790374 C9.69536672,23.1842922 9.9518396,23.2763902 10.206454,23.3647291 C10.3272564,23.4060792 10.4462004,23.4493089 10.5688613,23.4868999 C10.7937397,23.5545637 11.0223351,23.6109503 11.252789,23.6673368 C11.4070444,23.7049278 11.5575828,23.7443984 11.7155553,23.7744712 C11.7787442,23.7895076 11.8400747,23.8083031 11.9051222,23.8177008 C12.1225666,23.8571714 12.340011,23.879726 12.5593139,23.9060397 L12.7934848,23.9398716 C15.5844187,24.2275415 18.3833337,23.4764518 20.666087,21.8272566 C21.3023068,21.36648 21.4560954,20.475106 21.0117679,19.8236555 C20.8002632,19.510494 20.4730528,19.2965775 20.1038648,19.2301064 C19.7346768,19.1636352 19.3545705,19.2502015 19.0491928,19.4702999 M25.6635912,11.9990856 C25.6654926,9.57885816 24.9459237,7.21426073 23.5987986,5.21390735 C23.5783551,5.18007544 23.5653456,5.14624352 23.5467607,5.11805026 C23.3833774,4.8867151 23.2122976,4.66103978 23.0338149,4.44141199 L22.9724844,4.3605913 C21.8017706,2.90038437 20.3013865,1.74591273 18.5975775,0.99431588 C18.5507621,0.973160948 18.5042933,0.951229898 18.4581901,0.928531603 C18.1868887,0.816830381 17.9123262,0.713408313 17.634875,0.618405727 C17.5289405,0.584573813 17.4304401,0.546982798 17.3263641,0.516909985 C17.0833506,0.443166627 16.8378812,0.377969674 16.5903985,0.321436706 C16.454728,0.289484343 16.3171991,0.253772878 16.1778116,0.225579616 C16.1090472,0.212422761 16.0458582,0.191747703 15.9770937,0.178590847 C15.7912438,0.144758934 15.6053939,0.131602078 15.419544,0.107167918 C15.2931661,0.0902519613 15.1649296,0.0695769029 15.0366932,0.0564200475 C14.7276598,0.0286240561 14.4176774,0.0129493732 14.1074436,0.00943127833 C14.0516887,0.00943127833 13.9959337,1.66941204e-05 13.9383202,1.66941204e-05 C11.528397,-0.00410486893 9.17768459,0.755040039 7.2161289,2.17091466 C6.57813322,2.63122066 6.42340143,3.52410267 6.86858956,4.17639533 C7.08071414,4.48883547 7.40802477,4.70203044 7.77703842,4.7681168 C8.14605206,4.83420315 8.52584968,4.74764363 8.83116463,4.52787132 C10.5597092,3.28262869 12.6756135,2.71244135 14.7876543,2.92273497 L15.0236837,2.95656688 C15.2374111,2.98100104 15.4474215,3.0129534 15.6537149,3.05430352 C15.7447814,3.07121948 15.8358478,3.09565364 15.9250558,3.1163287 C16.1276322,3.16331746 16.3320671,3.21406534 16.529068,3.27421096 L16.7149179,3.33999524 C16.9416548,3.41517727 17.1628162,3.49599795 17.3821191,3.58997549 L17.4508835,3.62192785 C18.7611254,4.19894994 19.9115364,5.08797745 20.8091915,6.2006715 L20.8259179,6.22322611 C22.1384209,7.85590967 22.8533283,9.8967898 22.8498235,12.0009652 L20.785031,12.0009652 C20.729662,12.0003636 20.6785498,12.0309296 20.6523911,12.080286 C20.6262323,12.1296424 20.6293615,12.1896111 20.6605115,12.235909 L24.1340464,17.5681945 C24.1614957,17.6107415 24.2083325,17.6363941 24.2585658,17.6363941 C24.3087992,17.6363941 24.3556359,17.6107415 24.3830853,17.5681945 L27.8529031,12.235909 C27.9234734,12.2351423 27.983787,12.1843083 27.9972539,12.1142461 C28.0107209,12.0441838 27.9736302,11.9742008 27.9084831,11.9467529 C27.8433361,11.919305 27.7680858,11.9419563 27.7283837,12.0009652 L25.6635912,12.0009652 L25.6635912,11.9990856 L25.6635912,11.9990856 Z" id="形状"></path>
                    </g>
                </g>
            </g>
        </g>
    </g>
</svg>