<?xml version="1.0" encoding="UTF-8"?>
<svg width="190px" height="220px" viewBox="0 0 190 220" version="1.1" xmlns="http://www.w3.org/2000/svg" xmlns:xlink="http://www.w3.org/1999/xlink">
    <title>编组 12备份 4</title>
    <defs>
        <rect id="path-1" x="0" y="0" width="190" height="220" rx="22"></rect>
    </defs>
    <g id="页面-1" stroke="none" stroke-width="1" fill="none" fill-rule="evenodd">
        <g id="我的" transform="translate(-60.000000, -1278.000000)">
            <g id="编组-12备份-4" transform="translate(60.000000, 1278.000000)">
                <g id="矩形-3">
                    <mask id="mask-2" fill="white">
                        <use xlink:href="#path-1"></use>
                    </mask>
                    <use id="矩形" fill="#F7F7FF" xlink:href="#path-1"></use>
                    <g id="邀请好友" opacity="0.0199265253" mask="url(#mask-2)" fill="#2A3D81" fill-rule="nonzero">
                        <g transform="translate(55.000000, 65.000000)" id="路径">
                            <path d="M113.440918,177 L7.0945415,177 C-1.98466059,176.979888 0.227364954,170.670731 0.260759498,170.192204 C1.66913808,150.972615 9.79707965,136.084057 23.5977379,122.319093 C27.2082204,118.712354 31.1654739,115.610878 35.2962337,112.802503 C37.9919962,110.57199 40.8085114,108.497472 43.9214636,106.812447 C47.0612767,105.113686 50.3380558,103.734271 53.8282696,102.856684 C54.3388673,102.723501 54.8760839,102.697012 55.3963612,102.590809 C46.1538163,97.7707044 38.5328426,90.3445752 33.3474927,81.3433031 C28.7564689,73.3787998 26.047155,64.204365 26.047155,54.3750514 C26.047155,24.3919046 50.4849434,0 80.5250295,0 C110.558824,0 135,24.3919046 135,54.3750514 C135,64.204365 132.294074,73.3787998 127.702808,81.3433031 C123.097749,89.3342959 116.504747,95.9591184 108.636944,100.749299 C107.652531,101.344331 106.724985,102.028888 105.700644,102.564074 C109.261034,104.183121 113.818422,106.29443 119.372079,108.897512 C122.784131,110.496692 125.676631,112.26143 128.510085,114.333496 C110.770323,116.787698 101.900199,127.838225 101.900199,147.48557 C101.900199,157.845899 105.747106,167.683797 113.440676,177 L113.440918,177 Z"></path>
                            <path d="M150.623735,140.905398 C155.996699,132.278801 161.838692,127.977033 168.149713,128 C175.836775,128 183,133.656723 183,145.542235 C183,157.427983 174.793709,164.97549 169.998662,169.186668 C166.802288,171.994042 160.34406,176.598643 150.623977,183 C141.590703,177.05395 135.422525,172.449584 132.118958,169.186668 C127.163851,164.292412 119,156.828201 119,144.318201 C119,131.808435 128.602704,128 134.446394,128 C140.460089,128.006681 145.852697,132.308449 150.623735,140.905398 L150.623735,140.905398 Z"></path>
                        </g>
                    </g>
                </g>
                <text id="邀请好友" font-family="MiSans-Heavy, MiSans" font-size="26" font-weight="800" fill="#4A72FF">
                    <tspan x="24" y="50">邀请好友</tspan>
                </text>
                <text id="送50火花" font-family="PingFangSC-Regular, PingFang SC" font-size="20" font-weight="normal" line-spacing="24" fill="#4A72FF">
                    <tspan x="24" y="90">送50火花</tspan>
                </text>
                <g id="邀请好友" transform="translate(24.000000, 142.000000)" fill="#4A72FF" fill-rule="nonzero">
                    <path d="M35.2927301,55 L2.20719069,55 C-0.61744996,54.9937504 0.0707357636,53.0332781 0.0811251772,52.8845831 C0.519287404,46.9123946 3.04798034,42.2860063 7.34151844,38.0087578 C8.46477968,36.8880197 9.6959252,35.9242841 10.9810505,35.0516251 C11.8197321,34.3585281 12.6959813,33.7139037 13.6644553,33.1903083 C14.6412861,32.6624448 15.6607285,32.233813 16.7465728,31.9611166 C16.9054254,31.919732 17.0725594,31.9115008 17.2344235,31.8784998 C14.3589651,30.3807274 11.9879955,28.0731731 10.3747755,25.2761676 C8.94645699,22.801322 8.10355935,19.9505089 8.10355935,16.8962024 C8.10355935,7.57940539 15.7064268,0 25.0522314,0 C34.3960785,0 42,7.57940539 42,16.8962024 C42,19.9505089 41.1581564,22.801322 39.7297626,25.2761676 C38.2970775,27.7592445 36.2459211,29.8178052 33.7981602,31.3062794 C33.4918984,31.4911764 33.2033287,31.7038918 32.8846447,31.8701924 C33.9923218,32.373286 35.4101756,33.0293427 37.1379803,33.8382099 C38.1995073,34.3351302 39.0993962,34.8834953 39.9809153,35.5273576 C34.4618781,36.2899625 31.7022842,39.7237423 31.7022842,45.8288494 C31.7022842,49.0481608 32.8990995,52.1051348 35.2926548,55 L35.2927301,55 Z" id="路径"></path>
                    <path d="M46.8824171,43.9889413 C48.5614686,41.3225386 50.3870913,39.992901 52.3592852,40 C54.7614921,40 57,41.7484416 57,45.4221454 C57,49.095922 54.435534,51.428788 52.937082,52.7304248 C51.938215,53.5981584 49.9200186,55.0213986 46.8824929,57 C44.0595948,55.1621299 42.1320392,53.7389624 41.0996745,52.7304248 C39.5512033,51.2176547 37,48.9105349 37,45.0438075 C37,41.1771527 40.000845,40 41.8269982,40 C43.7062778,40.0020649 45.3914679,41.3317025 46.8824171,43.9889413 L46.8824171,43.9889413 Z" id="路径"></path>
                </g>
            </g>
        </g>
    </g>
</svg>