<?xml version="1.0" encoding="UTF-8"?>
<svg width="88px" height="32px" viewBox="0 0 88 32" version="1.1" xmlns="http://www.w3.org/2000/svg" xmlns:xlink="http://www.w3.org/1999/xlink">
    <title>编组 31</title>
    <g id="页面-1" stroke="none" stroke-width="1" fill="none" fill-rule="evenodd">
        <g id="影片" transform="translate(-632.000000, -677.000000)">
            <g id="编组-11" transform="translate(30.000000, 466.000000)">
                <g id="编组-14" transform="translate(0.000000, 201.000000)">
                    <g id="编组-31" transform="translate(602.000000, 10.000000)">
                        <g id="编组-23">
                            <path d="M4,0 L72,0 C80.836556,-1.623249e-15 88,7.163444 88,16 L88,28 C88,30.209139 86.209139,32 84,32 L16,32 C7.163444,32 1.082166e-15,24.836556 0,16 L0,4 C-2.705415e-16,1.790861 1.790861,4.05812251e-16 4,0 Z" id="矩形" fill="#FFF8E3"></path>
                            <text id="热榜" font-family="PingFangSC-Medium, PingFang SC" font-size="20" font-weight="400" fill="#FF7000">
                                <tspan x="40" y="23">热榜</tspan>
                            </text>
                        </g>
                        <g id="皇冠1" transform="translate(11.000000, 6.000000)" fill-rule="nonzero">
                            <path d="M0,5.70563247 L0.0766666703,5.5150409 C0.324374762,4.74973325 1.14212585,4.32197502 1.91666666,4.55255348 C2.27749319,4.67257775 2.57010382,4.93929962 2.72166667,5.28633103 C3.00654624,5.80578163 2.94986735,6.44453926 2.57791667,6.90635934 C2.51356533,6.93424501 2.46220963,6.98531265 2.43416666,7.04930303 C3.53624998,7.71637352 4.56166666,8.37391442 5.59666667,8.95521869 L6.77541667,9.68899622 C6.83920479,9.74970742 6.92820965,9.7766645 7.01520153,9.76162034 C7.10219341,9.74657618 7.17681985,9.6913211 7.21625,9.61275959 L7.29291667,9.53652298 C8.51958333,7.36377912 9.69833333,5.14338736 10.9441667,2.84675896 C10.4129667,2.61714609 10.0674835,2.09809396 10.0625,1.52214758 C10.0618609,1.10368339 10.2352886,0.703588026 10.5416667,0.416716493 C11.1148271,-0.138905498 12.0289229,-0.138905498 12.6020833,0.416716493 L12.67875,0.492953123 C13.2633333,1.22673065 13.0429167,2.11298145 12.0941667,2.78005192 C12.3693977,3.36907275 12.6897873,3.93616737 13.0525,4.47631687 C13.9341666,6.09634519 14.8158333,7.72590309 15.6975,9.24110605 C15.9179167,9.61275961 16.0616667,9.67946665 16.35875,9.46028635 C17.7579167,8.65027219 19.0804167,7.76402139 20.47,6.95400723 L20.6904167,6.81106356 C20.4085332,6.56543271 20.2248612,6.22720713 20.1729167,5.85810573 C20.1224434,5.07109408 20.7064834,4.38511924 21.4954167,4.30478445 C22.1680587,4.25764091 22.7810892,4.68794104 22.9616667,5.33397891 C22.9589775,5.45896155 22.9718531,5.58379477 23,5.70563247 L23,6.25834801 C22.8424334,6.97250575 22.1916955,7.47088393 21.4570833,7.44001573 C21.4226058,7.53598286 21.3969453,7.63485955 21.3804167,7.73543266 L18.9558333,16.0071067 C18.9514707,16.1485583 18.8828323,16.2804104 18.7692031,16.3656173 C18.655574,16.4508243 18.5092158,16.4801913 18.37125,16.4454673 L4.62875,16.4454673 C4.49078424,16.4801913 4.34442604,16.4508243 4.23079687,16.3656173 C4.1171677,16.2804104 4.04852931,16.1485583 4.04416667,16.0071067 C3.38291668,13.7962445 2.72166667,11.5758527 2.1275,9.28875392 C1.98375,8.68839049 1.76333334,8.09755663 1.61958332,7.44001573 C1.04952761,7.43449675 0.521812699,7.13977142 0.220416665,6.6585903 C0.159531414,6.5186941 0.0857439107,6.3847075 0,6.25834801 L0,5.70563247 L0,5.70563247 Z M11.5,17.8463153 L17.9591667,17.8463153 C18.5484087,17.8302485 19.0404192,18.2897188 19.06125,18.8755097 C19.0811608,19.4040631 18.7248763,19.8737906 18.2083333,20 L5.06958333,20 C4.6067265,19.9938202 4.19708273,19.7006833 4.04416667,19.2662225 C3.88917679,18.8384716 4.03771802,18.360364 4.40833333,18.0940843 C4.62426573,17.944147 4.88299379,17.8672981 5.14625,17.874904 C7.27375,17.7986674 9.41083334,17.874904 11.5383333,17.874904 L11.5,17.8463153 Z" id="形状" fill="#FF7000"></path>
                            <path d="M11,0 C11.404329,0.0105989423 11.7883198,0.172314034 12.07,0.450623192 L12.15,0.527325017 C12.76,1.26558005 12.53,2.15723873 11.54,2.82837968 C11.8271976,3.4209947 12.1615172,3.99154971 12.54,4.5349952 C13.46,6.16490891 14.38,7.80441035 15.3,9.32885905 C15.53,9.70278044 15.68,9.76989452 15.99,9.54937679 C17.45,8.73441993 18.83,7.84276125 20.28,7.02780441 L20.51,6.8839885 C20.2158608,6.6368588 20.0242029,6.29656938 19.97,5.92521571 C19.9173323,5.13340173 20.5267653,4.44324109 21.35,4.36241611 C22.0715288,4.3034825 22.7315779,4.75377044 22.91,5.42665388 C22.91,5.50335571 23,5.61840843 23,5.61840843 L23,6.17449663 C22.8355827,6.89301216 22.1565518,7.39443143 21.39,7.36337488 C21.3540235,7.4599276 21.3272473,7.55940763 21.31,7.66059444 L18.78,15.9827421 C18.7754477,16.1250568 18.703825,16.2577135 18.5852554,16.3434404 C18.4666859,16.4291672 18.3139643,16.4587135 18.17,16.4237776 L11,16.4237776 L11,0 Z M11,17.8331735 L17.74,17.8331735 C18.3548612,17.8170087 18.8682635,18.2792827 18.89,18.8686481 C18.9107765,19.4004267 18.5390014,19.8730205 18,20 L11.1,20 L11,17.8331735 Z" id="形状" fill="#FF4600"></path>
                        </g>
                    </g>
                </g>
            </g>
        </g>
    </g>
</svg>