<?xml version="1.0" encoding="UTF-8"?>
<svg width="54px" height="54px" viewBox="0 0 54 54" version="1.1" xmlns="http://www.w3.org/2000/svg" xmlns:xlink="http://www.w3.org/1999/xlink">
    <title>消息</title>
    <g id="页面-1" stroke="none" stroke-width="1" fill="none" fill-rule="evenodd">
        <g id="我的" transform="translate(-430.000000, -485.000000)" fill-rule="nonzero">
            <g id="编组-11" transform="translate(85.000000, 485.000000)">
                <g id="消息" transform="translate(345.000000, 0.000000)">
                    <path d="M27,0 C12.1562308,0 0,10.3319829 0,23.2599414 L0.00415380559,23.6638751 C0.176538441,32.3915451 5.95038456,40.1182069 14.6931923,43.9727115 L14.9839615,44.0973183 L14.9839615,51.919512 L14.9901923,52.0783857 C15.1054615,53.6910057 16.9840385,54.5767526 18.3091154,53.5788596 L27.7051154,46.5115756 L27.8878846,46.507422 C42.3256154,46.105565 54,35.9293407 54,23.2599414 C54,10.3319829 41.8437692,0 27,0 Z M27,4.15356092 C39.6858462,4.15356092 49.8461539,12.7888142 49.8461539,23.2599414 C49.8461539,33.7310686 39.6858462,42.3663218 27,42.3663218 L26.8078846,42.3756673 C26.4248437,42.4112701 26.0592181,42.5525494 25.7517693,42.7837547 L19.1378077,47.7566055 L19.1378077,42.6913379 C19.1379249,41.8221957 18.596771,41.0449102 17.7815769,40.7433179 C9.53307693,37.6904506 4.15384612,30.850574 4.15384612,23.2599414 C4.15384612,12.7888142 14.3141538,4.15356092 27,4.15356092 Z" id="形状" fill="#000000"></path>
                    <path d="M13.0386879,25 C13.8015459,25 14.5005077,25.4383338 14.8498967,26.135944 L14.7531223,25.9871396 C17.028848,29.5961706 20.4770716,31.6867678 24.6322574,31.8030868 L25,31.8083263 L25,36 C19.3972733,36 14.6329183,33.2754122 11.547344,28.5985522 L11.3344404,28.2695059 L11.3446272,28.2621704 C10.925918,27.6190992 10.885825,26.7909844 11.2403478,26.1082972 C11.5948706,25.42561 12.286291,24.9994954 13.0386879,25 Z" id="路径" fill="#00B386"></path>
                </g>
            </g>
        </g>
    </g>
</svg>