<?xml version="1.0" encoding="UTF-8"?>
<svg width="170px" height="86px" viewBox="0 0 170 86" version="1.1" xmlns="http://www.w3.org/2000/svg" xmlns:xlink="http://www.w3.org/1999/xlink">
    <title>编组 7备份</title>
    <defs>
        <linearGradient x1="-5.67254577e-14%" y1="50%" x2="100%" y2="50%" id="linearGradient-1">
            <stop stop-color="#F749A1" offset="0%"></stop>
            <stop stop-color="#FF3269" offset="100%"></stop>
        </linearGradient>
        <filter x="-10.7%" y="-26.8%" width="121.4%" height="153.6%" filterUnits="objectBoundingBox" id="filter-2">
            <feGaussianBlur stdDeviation="5" in="SourceGraphic"></feGaussianBlur>
        </filter>
    </defs>
    <g id="页面-1" stroke="none" stroke-width="1" fill="none" fill-rule="evenodd">
        <g id="小说详情" transform="translate(-565.000000, -395.000000)">
            <g id="编组-12备份-5" transform="translate(0.000000, 180.000000)">
                <g id="编组-7备份" transform="translate(580.000000, 225.000000)">
                    <path d="M34.1042788,5 L121,5 C131.49341,5 140,13.5065898 140,24 L140,42 C140,52.4934102 131.49341,61 121,61 L15.8516605,61 C9.77652826,61 4.85166051,56.0751322 4.85166051,50 C4.85166051,48.6856267 5.08722428,47.3818919 5.54718025,46.1506252 L16.3056311,17.3510799 C19.0802636,9.92360193 26.1754697,5 34.1042788,5 Z" id="矩形" fill="url(#linearGradient-1)" opacity="0.367513021" filter="url(#filter-2)"></path>
                    <path d="M28,0 L112,0 C127.463973,-2.84068575e-15 140,12.536027 140,28 C140,43.463973 127.463973,56 112,56 L28,56 C12.536027,56 1.8937905e-15,43.463973 0,28 C-1.8937905e-15,12.536027 12.536027,2.84068575e-15 28,0 Z" id="矩形" fill="url(#linearGradient-1)"></path>
                    <g id="编组-4" transform="translate(18.000000, 12.000000)" fill="#FFFFFF">
                        <text id="已喜欢" font-family="PingFangSC-Medium, PingFang SC" font-size="24" font-weight="400">
                            <tspan x="33" y="25">已喜欢</tspan>
                        </text>
                        <g id="责任心" transform="translate(0.000000, 5.000000)" fill-rule="nonzero">
                            <path d="M11.7664455,1.47583466 L11.8152172,1.42725935 L12.4937017,2.10323963 L12.5196684,2.12878084 L12.5454787,2.15451009 C12.5509882,2.16002574 12.5564351,2.16554138 12.5618194,2.17105703 L13.497999,3.10740098 L15.1606837,1.44399433 L15.2107702,1.49300838 C18.1430384,-0.716669088 22.25258,-0.429316533 24.8495452,2.16698297 C27.5935978,4.91227146 27.7126785,9.31852216 25.2001509,12.2070921 L25.2126725,12.2196277 L25.198523,12.2339183 L25.1863145,12.2228243 L25.1787389,12.2314738 L25.1843736,12.2478327 L24.8497957,12.5825323 C18.975586,18.448424 14.276281,21.4797741 14.0788775,21.6061953 L13.4631263,22 L12.8526342,21.5982352 C12.655356,21.4683667 7.95742825,18.3536552 2.1475172,12.5576492 L1.76228926,12.1721806 L1.77675174,12.1578901 C-0.711483938,9.26894401 -0.584639827,4.88726301 2.14714156,2.15451009 C4.73837761,-0.436032561 8.83789328,-0.725267685 11.7664455,1.47583466 Z M7.3163208,3.4469894 C6.20684179,3.68848704 4.10946878,4.81129749 4.10946878,7.33219939 L6.36455172,7.33232475 C6.36455172,6.78533542 6.56564909,6.37974725 6.99752011,6.0557656 C7.24008291,5.87726915 7.51314377,5.74457999 7.80328699,5.66421726 L7.79289404,5.66653634 Z" id="形状结合"></path>
                        </g>
                    </g>
                </g>
            </g>
        </g>
    </g>
</svg>