<?xml version="1.0" encoding="UTF-8"?>
<svg width="22px" height="18px" viewBox="0 0 22 18" version="1.1" xmlns="http://www.w3.org/2000/svg" xmlns:xlink="http://www.w3.org/1999/xlink">
    <title>责任心</title>
    <g id="页面-1" stroke="none" stroke-width="1" fill="none" fill-rule="evenodd">
        <g id="小说详情" transform="translate(-464.000000, -426.000000)" fill="#909090" fill-rule="nonzero">
            <g id="编组-12备份-5" transform="translate(0.000000, 180.000000)">
                <g id="责任心" transform="translate(464.000000, 246.000000)">
                    <path d="M10.9699548,18 L10.4725168,17.6712833 C10.3117715,17.5650273 6.48383043,15.016627 1.74982883,10.2744402 L1.4359394,9.95905686 L1.44772364,9.94736459 C-0.579727653,7.58368146 -0.476373193,3.99866974 1.74952275,1.76278098 C3.86090028,-0.356753914 7.20124638,-0.593400833 9.58747408,1.20750108 L9.62721402,1.16775765 L10.1800533,1.72083243 C10.1942011,1.73471271 10.208264,1.74869557 10.2222419,1.76278098 C10.2267311,1.76729378 10.2311693,1.77180659 10.2355565,1.77631939 L10.9983696,2.54241898 L12.3531497,1.1814499 L12.3939609,1.22155231 C14.7832164,-0.586365617 18.1317318,-0.351258982 20.2477776,1.77298607 C22.4836723,4.0191312 22.580701,7.62424541 20.5334563,9.98762085 L20.5436591,9.99787722 L20.5321299,10.0095695 L20.5225903,10.0000311 L20.5222332,10.0004413 L20.5316708,10.0098772 L20.5221822,10.0004926 L20.5197335,10.0033131 L20.528967,10.0125438 L20.5249369,10.0084926 L20.528967,10.0125438 L20.5197335,10.0033131 L20.5161115,10.0074669 L20.5250389,10.0164925 L20.5227433,10.0141848 L20.5250389,10.0164925 L20.5160605,10.0075182 L20.5250389,10.0164925 L20.5160605,10.0075182 L20.5250389,10.0164412 L20.5160605,10.0075182 L20.5250389,10.0164412 L20.5223862,10.0138259 L20.5250389,10.0164925 L20.5160095,10.0075695 C20.5147411,10.0089815 20.5134995,10.0104177 20.5122854,10.0118772 L20.5209578,10.0205438 L20.5206007,10.0209541 L20.2479816,10.2947991 C15.4615886,15.0941651 11.6325252,17.5743606 11.4716779,17.6777961 L10.9699548,18 Z M5.98588231,1.8439929 C4.30910711,1.84307848 2.79630939,2.85597271 2.15093869,4.41169924 C1.50556799,5.96742578 1.8542799,7.76066943 3.03492371,8.95757356 C6.66982765,12.6008415 9.80387567,14.9451913 10.9829123,15.7844701 C12.1650609,14.9596015 15.3057917,12.6477131 18.9656925,8.97516324 C20.5709883,7.33396451 20.5559234,4.69747047 18.9319785,3.0749179 C17.3080336,1.45236534 14.6852647,1.45328723 13.062449,3.07698101 L13.0543888,3.0857502 C13.0428596,3.09816041 13.0312284,3.11057062 13.0193931,3.12282698 L12.3766161,3.78841414 L12.365342,3.77733726 L10.9986247,5.15030629 L9.62634678,3.7718501 L9.61650107,3.78169622 L8.96750035,3.11257061 C8.95561408,3.10031425 8.94403389,3.08790404 8.93250472,3.07549383 L8.92230191,3.0645708 C8.14471269,2.28015284 7.08748837,1.84070439 5.98588231,1.8439929 Z M19.78809,9.26572621 L19.9175018,9.39429764 L19.78809,9.26572621 Z M19.78809,9.26572621 L19.9175018,9.39429764 L19.78809,9.26572621 Z M5.18572697,5.99907223 L3.34845605,5.99907223 C3.34845605,3.93651613 5.05742664,3.01785303 5.96144658,2.82026406 L6.34976551,4.63625701 L6.35823384,4.63435958 C6.12182085,4.7001109 5.89932682,4.80867476 5.70168305,4.95471731 C5.34978815,5.2197932 5.18593103,5.55163807 5.18593103,5.99917479 L5.18572697,5.99907223 Z" id="形状"></path>
                </g>
            </g>
        </g>
    </g>
</svg>