<?xml version="1.0" encoding="UTF-8"?>
<svg width="44px" height="46px" viewBox="0 0 44 46" version="1.1" xmlns="http://www.w3.org/2000/svg" xmlns:xlink="http://www.w3.org/1999/xlink">
    <title>编组 57</title>
    <g id="页面-1" stroke="none" stroke-width="1" fill="none" fill-rule="evenodd">
        <g id="首页1备份-11" transform="translate(-197.000000, -2745.000000)">
            <g id="编组-26" transform="translate(-1.000000, 2707.000000)">
                <g id="编组-20" transform="translate(0.000000, 19.000000)">
                    <g id="编组-18" transform="translate(50.000000, 19.112585)">
                        <g id="编组-57" transform="translate(148.000000, 0.000000)">
                            <path d="M32.7317632,11.8874146 C34.5950929,11.8874146 36.2950813,12.6173465 37.5530948,13.8124996 C38.8111083,15.0076527 39.6271469,16.6680269 39.7225768,18.5289113 L40.5943717,35.5289113 C40.6933697,37.4593712 40.000522,39.2472014 38.8003099,40.5771662 C37.6099661,41.8961958 35.9205669,42.7648582 34.0096337,42.8756296 L9.47336501,42.8874146 C7.54036839,42.8874146 5.79036839,42.1039129 4.52361754,40.837162 C3.26724203,39.5807865 2.48623198,37.8490455 2.47352253,35.9348742 L3.35434624,18.5289113 C3.44977621,16.6680269 4.26581477,15.0076527 5.52382826,13.8124996 C6.78184176,12.6173465 8.48183019,11.8874146 10.3451599,11.8874146 Z" id="矩形" stroke="#B5B8C0" stroke-width="4"></path>
                            <g id="编组-52" transform="translate(11.703822, 0.000000)" fill="#B5B8C0">
                                <rect id="矩形" transform="translate(5.062082, 6.601664) rotate(-31.000000) translate(-5.062082, -6.601664) " x="3.06208209" y="0.101663604" width="4" height="13" rx="2"></rect>
                                <rect id="矩形备份-11" transform="translate(13.318794, 7.906422) scale(-1, 1) rotate(-35.000000) translate(-13.318794, -7.906422) " x="11.3187942" y="2.90642218" width="4" height="10" rx="2"></rect>
                            </g>
                            <polyline id="路径-10" stroke="#B5B8C0" stroke-width="4" stroke-linecap="round" stroke-linejoin="round" points="11.4436882 29.1238113 16.5040707 29.1238113 20.0791347 21.3874146 23.3424986 32.3874146 26.3289465 29.1238113 32.4436882 29.1238113"></polyline>
                        </g>
                    </g>
                </g>
            </g>
        </g>
    </g>
</svg>