<?xml version="1.0" encoding="UTF-8"?>
<svg width="33px" height="36px" viewBox="0 0 33 36" version="1.1" xmlns="http://www.w3.org/2000/svg" xmlns:xlink="http://www.w3.org/1999/xlink">
    <title>密码</title>
    <g id="页面-1" stroke="none" stroke-width="1" fill="none" fill-rule="evenodd">
        <g id="设置" transform="translate(-33.000000, -320.000000)" fill="#333333" fill-rule="nonzero">
            <g id="编组-11" transform="translate(30.000000, 210.000000)">
                <g id="密码" transform="translate(3.000000, 110.000000)">
                    <path d="M16.5,0 C22.8789,0 28.05,5.12836364 28.05,11.4545455 L28.05,13.9090909 C30.7838095,13.9090909 33,16.1069658 33,18.8181818 L33,31.0909091 C33,33.8021251 30.7838095,36 28.05,36 L4.95,36 C2.21619049,36 0,33.8021251 0,31.0909091 L0,18.8181818 C0,16.1069658 2.21619049,13.9090909 4.95,13.9090909 L4.95,11.4545455 C4.95,5.12836364 10.1211,0 16.5,0 L16.5,0 Z M28.05,16.3636364 L4.95,16.3636364 C3.63943997,16.3636364 2.55601119,17.3766915 2.479125,18.6741818 L2.475,18.8181818 L2.475,31.0909091 C2.475,32.390638 3.49649724,33.4651129 4.8048,33.5413636 L4.95,33.5454545 L28.05,33.5454545 C29.36056,33.5454545 30.4439888,32.5323994 30.520875,31.2349091 L30.525,31.0909091 L30.525,18.8181818 C30.525,17.5184529 29.5035028,16.443978 28.1952,16.3677273 L28.05,16.3636364 Z M21.0375,23.7272727 C21.7209523,23.7272727 22.2749999,24.2767415 22.2749999,24.9545455 C22.2749999,25.6323494 21.7209523,26.1818182 21.0375,26.1818182 L11.9625,26.1818182 C11.2790477,26.1818182 10.7250001,25.6323494 10.7250001,24.9545455 C10.7250001,24.2767415 11.2790477,23.7272727 11.9625,23.7272727 L21.0375,23.7272727 L21.0375,23.7272727 Z M16.5,2.45454545 C11.567325,2.45454545 7.554525,6.35727273 7.4283,11.2189091 L7.425,11.4545455 L7.425,13.9090909 L25.575,13.9090909 L25.575,11.4545455 C25.575,6.56263636 21.63975,2.583 16.7376,2.45781818 L16.5,2.45454545 Z" id="形状"></path>
                </g>
            </g>
        </g>
    </g>
</svg>