<?xml version="1.0" encoding="UTF-8"?>
<svg width="44px" height="34px" viewBox="0 0 44 34" version="1.1" xmlns="http://www.w3.org/2000/svg" xmlns:xlink="http://www.w3.org/1999/xlink">
    <title>用户信息 (1)</title>
    <g id="页面-1" stroke="none" stroke-width="1" fill="none" fill-rule="evenodd">
        <g id="设置" transform="translate(-30.000000, -213.000000)" fill="#333333" fill-rule="nonzero">
            <g id="编组-11" transform="translate(30.000000, 210.000000)">
                <g id="用户信息-(1)" transform="translate(0.000000, 3.000000)">
                    <path d="M42.625,5.42426889 L31.2125,5.42426889 C30.45625,5.42426889 29.8375,6.05001482 29.8375,6.81481541 C29.8375,7.579616 30.45625,8.20536194 31.2125,8.20536194 L42.625,8.20536194 C43.38125,8.20536194 44,7.579616 44,6.81481541 C44,6.05001482 43.38125,5.42426889 42.625,5.42426889 Z M38.6375,10.986455 L31.2125,10.986455 C30.45625,10.986455 29.8375,11.6122009 29.8375,12.3770015 C29.8375,13.1418021 30.45625,13.767548 31.2125,13.767548 L38.6375,13.767548 C39.39375,13.767548 40.0125,13.1418021 40.0125,12.3770015 C40.08125,11.6122009 39.4625,10.986455 38.6375,10.986455 Z M34.99375,16.6876957 L31.2125,16.6876957 C30.45625,16.6876957 29.8375,17.3134417 29.8375,18.0782423 C29.8375,18.8430429 30.45625,19.4687888 31.2125,19.4687888 L34.925,19.4687888 C35.68125,19.4687888 36.3,18.8430429 36.3,18.0782423 C36.36875,17.3134417 35.75,16.6876957 34.99375,16.6876957 Z M21.79375,17.0353324 C25.91875,13.97613 26.88125,8.13583461 23.85625,3.89466771 C20.83125,-0.346499198 15.05625,-1.25035444 10.8625,1.80884792 C6.66875,4.86805028 5.775,10.777873 8.8,14.9495126 C9.35,15.7143132 10.0375,16.4791138 10.8625,17.0353324 C4.33125,19.3992615 0,25.5871935 0,32.6094535 C0,33.3742541 0.61875,34 1.375,34 C2.13125,34 2.75,33.3742541 2.75,32.6094535 C3.09375,25.0309749 9.41875,19.1906795 16.9125,19.5383161 C23.925,19.8164254 29.5625,25.5176662 29.8375,32.6094535 C29.8375,33.3742541 30.45625,34 31.2125,34 C31.96875,34 32.5875,33.3742541 32.5875,32.6094535 C32.65625,25.5871935 28.25625,19.3992615 21.79375,17.0353324 L21.79375,17.0353324 Z M9.83125,9.52638114 C9.83125,5.91096017 12.71875,2.92128514 16.3625,2.92128514 C20.00625,2.92128514 22.89375,5.84143284 22.89375,9.52638114 C22.89375,13.2113294 20.00625,16.1314771 16.3625,16.1314771 C12.71875,16.1314771 9.83125,13.1418021 9.83125,9.52638114 Z" id="形状"></path>
                </g>
            </g>
        </g>
    </g>
</svg>