<?xml version="1.0" encoding="UTF-8"?>
<svg width="190px" height="220px" viewBox="0 0 190 220" version="1.1" xmlns="http://www.w3.org/2000/svg" xmlns:xlink="http://www.w3.org/1999/xlink">
    <title>编组 12备份 5</title>
    <defs>
        <rect id="path-1" x="0" y="0" width="190" height="220" rx="22"></rect>
    </defs>
    <g id="页面-1" stroke="none" stroke-width="1" fill="none" fill-rule="evenodd">
        <g id="我的" transform="translate(-280.000000, -1278.000000)">
            <g id="编组-12备份-5" transform="translate(280.000000, 1278.000000)">
                <g id="矩形-3">
                    <mask id="mask-2" fill="white">
                        <use xlink:href="#path-1"></use>
                    </mask>
                    <use id="矩形" fill="#FFF6ED" xlink:href="#path-1"></use>
                    <g id="网站备份" opacity="0.0363420759" mask="url(#mask-2)" fill="#FFFFFF" fill-rule="nonzero">
                        <g transform="translate(80.000000, 132.000000)" id="形状">
                            <path d="M108.680441,25.973909 C110.990445,17.8567449 111.855837,2.20001045 97.4090338,0.181688558 C85.8517976,-1.26623802 71.9843861,6.26596241 64.7389845,11.2020757 C62.428981,10.9095082 59.8257584,10.617112 57.2297544,10.617112 C38.4269448,10.3245445 26.3049266,16.7012145 15.8989109,30.3176887 C12.1442958,35.2464322 8.67568122,43.6561639 7.50967946,53.2065148 C6.952288,57.7038625 6.952288,62.7863453 7.50967946,65.6821984 L7.50967946,65.9745946 C6.92289733,67.130125 6.3582871,68.285484 5.77167684,69.7334106 C-6.6583419,100.739572 3.45428272,114.077876 13.0022971,116.388765 C21.6703102,118.714223 33.8143285,114.370443 43.6263433,103.935191 C60.0971494,107.701206 76.5971743,103.357598 82.6544022,100.169177 C94.2118102,93.7997053 102.307822,82.5014904 104.053044,70.8961395 L72.2557771,70.8961395 C72.2557771,70.8961395 70.8109937,81.0316255 53.7537492,81.0316255 C38.148335,81.0316255 37.2829431,62.7863453 37.2829431,62.7863453 L104.625045,62.7863453 C104.625045,62.7863453 105.783828,43.0710288 96.243032,30.0251212 C90.7430237,22.7854883 83.5197941,16.4014484 73.4069976,12.9352 C76.5897836,10.617112 81.7890102,7.12155538 86.4090172,5.96619636 C95.0770303,3.64793702 100.87043,5.0958636 104.625045,11.472705 C109.538443,20.1602644 101.735822,40.1679771 101.735822,40.1679771 C101.735822,40.1679771 106.355829,34.3762708 108.673051,25.973909 L108.680441,25.973909 Z M36.6669422,101.207475 C24.3469236,112.688566 14.1756895,111.182194 10.1496834,104.542093 C6.66628757,98.5018674 6.13089613,87.9202459 10.1496834,73.1264743 C12.0436395,79.0311686 15.1421112,84.4812954 19.2503065,89.1342213 C24.6037052,95.1672487 30.4995423,99.094201 36.6669422,101.207475 L36.6669422,101.207475 Z M36.6743328,43.2977815 C36.6743328,43.2977815 37.2757243,30.5370716 52.0009653,29.4034794 C64.6289843,28.2626888 71.2437756,33.6523075 73.3337787,43.8755467 L36.6669422,43.3051514 L36.6743328,43.3051514 L36.6743328,43.2977815 Z"></path>
                        </g>
                    </g>
                    <g id="绑定手机号-(1)" opacity="0.0293201265" mask="url(#mask-2)" fill="#8D6337" fill-rule="nonzero">
                        <g transform="translate(77.000000, 86.000000)" id="形状">
                            <path d="M112.527473,21 L77.3626374,21 C61.8258356,21 49.2307692,33.536027 49.2307692,49 C49.2307692,64.463973 61.8258356,77 77.3626374,77 L112.527473,77 L112.527473,122.5 C112.527473,132.164983 104.655556,140 94.9450549,140 L17.5824176,140 C7.87191649,140 0,132.164983 0,122.5 L0,17.5 C0,7.83501688 7.87191649,0 17.5824176,0 L94.9450549,0 C104.655556,0 112.527473,7.83501688 112.527473,17.5 L112.527473,21 Z M38.6813187,119 C36.7392185,119 35.1648352,120.567003 35.1648352,122.5 C35.1648352,124.432997 36.7392185,126 38.6813187,126 L73.8461538,126 C75.7882541,126 77.3626374,124.432997 77.3626374,122.5 C77.3626374,120.567003 75.7882541,119 73.8461538,119 L38.6813187,119 Z M138.549451,71.1375 L122.461538,71.1375 C119.499836,71.1375 117.098901,68.7478199 117.098901,65.8 C117.098901,62.8521801 119.499836,60.4625 122.461538,60.4625 L138.549451,60.4625 C144.472856,60.4625 149.274725,55.6831397 149.274725,49.7875 C149.274725,43.8918603 144.472856,39.1125 138.549451,39.1125 L122.461538,39.12125 C119.499836,39.12125 117.098901,36.7315699 117.098901,33.78375 C117.098901,30.8359301 119.499836,28.44625 122.461538,28.44625 L138.549451,28.44625 C150.396262,28.44625 160,38.0049706 160,49.79625 C160,61.5875294 150.396262,71.14625 138.549451,71.14625 L138.549451,71.1375 Z M84.9230769,49.7875 C84.9230769,46.8396801 87.3240115,44.45 90.2857143,44.45 L127.824176,44.45 C129.740062,44.45 131.510413,45.4673217 132.468356,47.1187499 C133.426299,48.7701782 133.426299,50.8048218 132.468356,52.4562501 C131.510413,54.1076783 129.740062,55.125 127.824176,55.125 L90.2857143,55.125 C87.3240115,55.125 84.9230769,52.7353199 84.9230769,49.7875 L84.9230769,49.7875 Z M79.5604396,39.1125 C73.6370339,39.1125 68.8351648,43.8918603 68.8351648,49.7875 C68.8351648,55.6831397 73.6370339,60.4625 79.5604396,60.4625 L95.6483516,60.4625 C98.6100545,60.4625 101.010989,62.8521801 101.010989,65.8 C101.010989,68.7478199 98.6100545,71.1375 95.6483516,71.1375 L79.5604396,71.1375 C67.9527143,70.8066957 58.7152893,61.345549 58.7152893,49.7875 C58.7152893,38.229451 67.9527143,28.7683043 79.5604396,28.4375 L95.6483516,28.44625 C98.6100545,28.44625 101.010989,30.8359301 101.010989,33.78375 C101.010989,36.7315699 98.6100545,39.12125 95.6483516,39.12125 L79.5604396,39.12125 L79.5604396,39.1125 Z"></path>
                        </g>
                    </g>
                </g>
                <text id="绑定手机" font-family="MiSans-Heavy, MiSans" font-size="26" font-weight="800" fill="#CE7E2A">
                    <tspan x="24" y="50">绑定手机</tspan>
                </text>
                <text id="送50火花" font-family="PingFangSC-Regular, PingFang SC" font-size="20" font-weight="normal" line-spacing="24" fill="#CE7E2A">
                    <tspan x="24" y="90">送50火花</tspan>
                </text>
                <g id="绑定手机号-(1)" transform="translate(24.000000, 145.000000)" fill="#CE7E2A" fill-rule="nonzero">
                    <path d="M40.0879121,7.5 L27.5604396,7.5 C22.0254539,7.5 17.5384615,11.9771525 17.5384615,17.5 C17.5384615,23.0228475 22.0254539,27.5 27.5604396,27.5 L40.0879121,27.5 L40.0879121,43.75 C40.0879121,47.2017797 37.2835418,50 33.8241758,50 L6.26373626,50 C2.80437025,50 0,47.2017797 0,43.75 L0,6.25 C0,2.79822031 2.80437025,0 6.26373626,0 L33.8241758,0 C37.2835418,0 40.0879121,2.79822031 40.0879121,6.25 L40.0879121,7.5 Z M13.7802198,42.5 C13.0883466,42.5 12.5274725,43.0596441 12.5274725,43.75 C12.5274725,44.4403559 13.0883466,45 13.7802198,45 L26.3076923,45 C26.9995655,45 27.5604396,44.4403559 27.5604396,43.75 C27.5604396,43.0596441 26.9995655,42.5 26.3076923,42.5 L13.7802198,42.5 Z M49.3582418,25.40625 L43.6269231,25.40625 C42.5718164,25.40625 41.7164835,24.5527928 41.7164835,23.5 C41.7164835,22.4472072 42.5718164,21.59375 43.6269231,21.59375 L49.3582418,21.59375 C51.468455,21.59375 53.1791209,19.8868356 53.1791209,17.78125 C53.1791209,15.6756644 51.468455,13.96875 49.3582418,13.96875 L43.6269231,13.971875 C42.5718164,13.971875 41.7164835,13.1184178 41.7164835,12.065625 C41.7164835,11.0128322 42.5718164,10.159375 43.6269231,10.159375 L49.3582418,10.159375 C53.5786683,10.159375 57,13.5732038 57,17.784375 C57,21.9955462 53.5786683,25.409375 49.3582418,25.409375 L49.3582418,25.40625 Z M30.2538462,17.78125 C30.2538462,16.7284572 31.1091791,15.875 32.1642857,15.875 L45.5373626,15.875 C46.219897,15.875 46.8505847,16.2383292 47.1918519,16.828125 C47.5331191,17.4179208 47.5331191,18.1445792 47.1918519,18.734375 C46.8505847,19.3241708 46.219897,19.6875 45.5373626,19.6875 L32.1642857,19.6875 C31.1091791,19.6875 30.2538462,18.8340428 30.2538462,17.78125 L30.2538462,17.78125 Z M28.3434066,13.96875 C26.2331933,13.96875 24.5225275,15.6756644 24.5225275,17.78125 C24.5225275,19.8868356 26.2331933,21.59375 28.3434066,21.59375 L34.0747253,21.59375 C35.1298319,21.59375 35.9851648,22.4472072 35.9851648,23.5 C35.9851648,24.5527928 35.1298319,25.40625 34.0747253,25.40625 L28.3434066,25.40625 C24.2081545,25.2881056 20.9173218,21.9091246 20.9173218,17.78125 C20.9173218,13.6533754 24.2081545,10.2743944 28.3434066,10.15625 L34.0747253,10.159375 C35.1298319,10.159375 35.9851648,11.0128322 35.9851648,12.065625 C35.9851648,13.1184178 35.1298319,13.971875 34.0747253,13.971875 L28.3434066,13.971875 L28.3434066,13.96875 Z" id="形状"></path>
                </g>
            </g>
        </g>
    </g>
</svg>