<?xml version="1.0" encoding="UTF-8"?>
<svg width="396px" height="103px" viewBox="0 0 396 103" version="1.1" xmlns="http://www.w3.org/2000/svg" xmlns:xlink="http://www.w3.org/1999/xlink">
    <title>编组 28</title>
    <defs>
        <linearGradient x1="95.5923659%" y1="52.7499939%" x2="-1.00107869e-14%" y2="48.554961%" id="linearGradient-1">
            <stop stop-color="#FF1370" offset="0%"></stop>
            <stop stop-color="#FF61BF" offset="98.9697645%"></stop>
            <stop stop-color="#FF2BA9" offset="100%"></stop>
        </linearGradient>
        <rect id="path-2" x="0" y="1.34863438" width="395.50414" height="92.7538392" rx="46.3769196"></rect>
        <filter x="-3.5%" y="-15.1%" width="107.1%" height="130.2%" filterUnits="objectBoundingBox" id="filter-3">
            <feGaussianBlur stdDeviation="13" in="SourceAlpha" result="shadowBlurInner1"></feGaussianBlur>
            <feOffset dx="-2" dy="-2" in="shadowBlurInner1" result="shadowOffsetInner1"></feOffset>
            <feComposite in="shadowOffsetInner1" in2="SourceAlpha" operator="arithmetic" k2="-1" k3="1" result="shadowInnerInner1"></feComposite>
            <feColorMatrix values="0 0 0 0 1   0 0 0 0 0.874246966   0 0 0 0 0.626333841  0 0 0 0.442307692 0" type="matrix" in="shadowInnerInner1"></feColorMatrix>
        </filter>
        <filter x="-49.9%" y="-33.3%" width="199.8%" height="166.5%" filterUnits="objectBoundingBox" id="filter-4">
            <feGaussianBlur stdDeviation="3" in="SourceGraphic"></feGaussianBlur>
        </filter>
        <filter x="-31.8%" y="-21.2%" width="163.5%" height="142.3%" filterUnits="objectBoundingBox" id="filter-5">
            <feGaussianBlur stdDeviation="1" in="SourceGraphic"></feGaussianBlur>
        </filter>
        <filter x="-31.8%" y="-21.2%" width="163.5%" height="142.3%" filterUnits="objectBoundingBox" id="filter-6">
            <feGaussianBlur stdDeviation="1" in="SourceGraphic"></feGaussianBlur>
        </filter>
        <filter x="-49.9%" y="-33.3%" width="199.8%" height="166.5%" filterUnits="objectBoundingBox" id="filter-7">
            <feGaussianBlur stdDeviation="3" in="SourceGraphic"></feGaussianBlur>
        </filter>
        <filter x="-66.5%" y="-44.4%" width="233.1%" height="188.7%" filterUnits="objectBoundingBox" id="filter-8">
            <feGaussianBlur stdDeviation="3" in="SourceGraphic"></feGaussianBlur>
        </filter>
    </defs>
    <g id="页面-1" stroke="none" stroke-width="1" fill="none" fill-rule="evenodd">
        <g id="签到金币天天领" transform="translate(-178.000000, -1200.000000)">
            <g id="编组-28" transform="translate(178.120714, 1200.728664)">
                <g id="编组-5" transform="translate(0.000000, -0.000000)">
                    <rect id="矩形" fill="#E80E66" x="0" y="0" width="395.50414" height="101.771574" rx="50.8857868"></rect>
                    <g id="矩形">
                        <use fill="url(#linearGradient-1)" fill-rule="evenodd" xlink:href="#path-2"></use>
                        <use fill="black" fill-opacity="1" filter="url(#filter-3)" xlink:href="#path-2"></use>
                    </g>
                    <text id="立即签到" font-family="Source-KeynoteartHans-Regular, Source-KeynoteartHans" font-size="36" font-style="condensed" font-weight="800" letter-spacing="2" fill="#FFFFFF">
                        <tspan x="121.75207" y="56.9096633">立即签到</tspan>
                    </text>
                </g>
                <g id="编组-6" transform="translate(27.054029, 6.501625)" fill="#FFFFFF">
                    <path d="M322.071775,17.9931086 L322.071775,17.9931086 L322.071775,17.9931086 C326.638602,17.0194911 330.066049,13.2266375 330.573635,8.58484994 L331.089785,3.8647433 L331.089785,3.8647433 L331.605935,8.58484994 C332.113521,13.2266375 335.540968,17.0194911 340.107794,17.9931086 L340.107794,17.9931086 L340.107794,17.9931086 C335.530544,18.9689484 332.078768,22.7448481 331.516553,27.3910727 L331.089785,30.9179464 L331.089785,30.9179464 L330.663017,27.3910727 C330.100802,22.7448481 326.649026,18.9689484 322.071775,17.9931086 Z" id="星形备份-2" filter="url(#filter-4)"></path>
                    <path d="M287.717452,69.2364651 L287.717452,69.2364651 L287.717452,69.2364651 C290.1096,68.726475 291.904929,66.7397421 292.170807,64.3083296 L292.441172,61.8358928 L292.441172,61.8358928 L292.711536,64.3083296 C292.977414,66.7397421 294.772744,68.726475 297.164891,69.2364651 L297.164891,69.2364651 L297.164891,69.2364651 C294.767284,69.7476193 292.95921,71.7254715 292.664717,74.1592082 L292.441172,76.0066182 L292.441172,76.0066182 L292.217627,74.1592082 C291.923133,71.7254715 290.11506,69.7476193 287.717452,69.2364651 Z" id="星形备份-2" filter="url(#filter-5)"></path>
                    <path d="M55.8257743,56.3539874 L55.8257743,56.3539874 L55.8257743,56.3539874 C58.2179215,55.8439973 60.013251,53.8572645 60.2791293,51.4258519 L60.5494937,48.9534151 L60.5494937,48.9534151 L60.8198581,51.4258519 C61.0857365,53.8572645 62.8810659,55.8439973 65.2732131,56.3539874 L65.2732131,56.3539874 L65.2732131,56.3539874 C62.8756055,56.8651416 61.0675324,58.8429938 60.7730389,61.2767305 L60.5494937,63.1241406 L60.5494937,63.1241406 L60.3259485,61.2767305 C60.031455,58.8429938 58.2233819,56.8651416 55.8257743,56.3539874 Z" id="星形备份-2" opacity="0.699999988" filter="url(#filter-6)"></path>
                    <path d="M0,17.9931086 L0,17.9931086 L0,17.9931086 C4.56682647,17.0194911 7.99427354,13.2266375 8.50185947,8.58484994 L9.0180097,3.8647433 L9.0180097,3.8647433 L9.53415993,8.58484994 C10.0417459,13.2266375 13.4691929,17.0194911 18.0360194,17.9931086 L18.0360194,17.9931086 L18.0360194,17.9931086 C13.4587686,18.9689484 10.0069927,22.7448481 9.44477786,27.3910727 L9.0180097,30.9179464 L9.0180097,30.9179464 L8.59124154,27.3910727 C8.0290267,22.7448481 4.57725083,18.9689484 0,17.9931086 Z" id="星形备份-2" filter="url(#filter-7)"></path>
                    <path d="M0,14.1283653 L0,14.1283653 L0,14.1283653 C4.56682647,13.1547478 7.99427354,9.36189418 8.50185947,4.72010664 L9.0180097,0 L9.0180097,0 L9.53415993,4.72010664 C10.0417459,9.36189418 13.4691929,13.1547478 18.0360194,14.1283653 L18.0360194,14.1283653 L18.0360194,14.1283653 C13.4587686,15.1042051 10.0069927,18.8801048 9.44477786,23.5263294 L9.0180097,27.0532031 L9.0180097,27.0532031 L8.59124154,23.5263294 C8.0290267,18.8801048 4.57725083,15.1042051 0,14.1283653 Z" id="星形备份-2"></path>
                    <path d="M285.677664,17.3595747 L285.677664,17.3595747 L285.677664,17.3595747 C289.102784,16.6293616 291.67337,13.7847214 292.054059,10.3033808 L292.441172,6.76330078 L292.441172,6.76330078 L292.828284,10.3033808 C293.208974,13.7847214 295.779559,16.6293616 299.204679,17.3595747 L299.204679,17.3595747 L299.204679,17.3595747 C295.771741,18.0914546 293.182909,20.9233793 292.761248,24.4080478 L292.441172,27.0532031 L292.441172,27.0532031 L292.121096,24.4080478 C291.699434,20.9233793 289.110603,18.0914546 285.677664,17.3595747 Z" id="星形备份-2" filter="url(#filter-8)"></path>
                    <path d="M285.677664,14.4610172 L285.677664,14.4610172 L285.677664,14.4610172 C289.102784,13.7308041 291.67337,10.8861639 292.054059,7.40482328 L292.441172,3.8647433 L292.441172,3.8647433 L292.828284,7.40482328 C293.208974,10.8861639 295.779559,13.7308041 299.204679,14.4610172 L299.204679,14.4610172 L299.204679,14.4610172 C295.771741,15.1928971 293.182909,18.0248219 292.761248,21.5094903 L292.441172,24.1546456 L292.441172,24.1546456 L292.121096,21.5094903 C291.699434,18.0248219 289.110603,15.1928971 285.677664,14.4610172 Z" id="星形备份-2"></path>
                </g>
            </g>
        </g>
    </g>
</svg>