<?xml version="1.0" encoding="UTF-8"?>
<svg width="62px" height="59px" viewBox="0 0 62 59" version="1.1" xmlns="http://www.w3.org/2000/svg" xmlns:xlink="http://www.w3.org/1999/xlink">
    <title>编组 24</title>
    <defs>
        <linearGradient x1="50%" y1="0%" x2="50%" y2="100%" id="linearGradient-1">
            <stop stop-color="#FF1370" offset="0%"></stop>
            <stop stop-color="#FF61BF" offset="98.9697645%"></stop>
            <stop stop-color="#FF2BA9" offset="100%"></stop>
        </linearGradient>
    </defs>
    <g id="页面-1" stroke="none" stroke-width="1" fill="none" fill-rule="evenodd">
        <g id="首页1备份-11" transform="translate(-56.000000, -522.000000)">
            <g id="编组-25" transform="translate(56.000000, 518.000000)">
                <g id="排行榜-(1)" transform="translate(0.000000, 4.000000)">
                    <path d="M36.0766847,21.7838278 C35.7219341,21.6543919 35.3286029,21.6672049 34.9836206,21.819435 C34.6386382,21.9716651 34.3704094,22.2507781 34.238215,22.5950878 C33.5587841,24.3287207 32.1254685,25.6839804 30.3204779,26.2994714 C29.6617301,26.5225971 29.264513,27.1730904 29.3796929,27.8401258 C29.4948728,28.5071613 30.0889732,28.996868 30.7867842,28.9999839 C30.9441537,29.0007288 31.1005219,28.9756794 31.2492683,28.9258793 C33.8679249,28.0488884 35.9444778,26.0825376 36.9099205,23.5656363 C37.1839276,22.8507207 36.8120043,22.0553923 36.0766847,21.7838278 Z M28.4934747,9 L28.3902758,9.11113151 C27.9653706,9.54143207 27.4833845,9.91513722 26.9569574,10.2224466 C26.4240938,10.5090801 25.858364,10.7341169 25.271375,10.89294 L25,10.9596189 L25,13.6230707 L25.4548397,13.4971217 C26.2911564,13.273931 27.0821768,12.9144113 27.7940154,12.4339636 L27.7940154,21.5949042 L30.5154092,21.5949042 L30.5154092,9 L28.4934747,9 Z" id="形状" fill="#000000" fill-rule="nonzero"></path>
                    <g id="编组-53">
                        <path d="M3.20665928,0 L58.7933407,0 C60.450195,-7.48448398e-16 61.7933407,1.34314575 61.7933407,3 C61.7933407,3.06657431 61.7911247,3.13313017 61.7866962,3.19955703 L60.1866962,27.199557 C60.0816366,28.7754505 58.7727323,30 57.1933407,30 L4.80665928,30 C3.22726765,30 1.91836337,28.7754505 1.8133038,27.199557 L0.213303802,3.19955703 C0.103091497,1.54637245 1.35391767,0.116856832 3.00710224,0.00664452643 C3.0735291,0.0022160692 3.14008497,-8.75948917e-16 3.20665928,0 Z" id="矩形" fill="#B00047"></path>
                        <path d="M13,0 L50,0 C52.7614237,-5.07265313e-16 55,2.23857625 55,5 L55,40.367458 C55,45.0247016 52.3053013,49.2613483 48.0872813,51.2357407 L31.9239401,58.80156 C31.6553001,58.9273063 31.3446999,58.9273063 31.0760599,58.80156 L14.9127187,51.2357407 C10.6946987,49.2613483 8,45.0247016 8,40.367458 L8,5 C8,2.23857625 10.2385763,1.39544373e-15 13,0 Z" id="矩形" fill="url(#linearGradient-1)"></path>
                        <path d="M31.5346589,32.7446443 L26.1522639,35.5743368 C25.6634193,35.8313376 25.0587921,35.6433911 24.8017913,35.1545465 C24.6994523,34.959886 24.6641376,34.736918 24.7013144,34.5201603 L25.7292604,28.5267754 C25.7848983,28.2023814 25.6773499,27.8713812 25.4416638,27.641644 L21.0872147,23.3971052 C20.6917312,23.011604 20.6836389,22.3784908 21.0691401,21.9830072 C21.2226487,21.8255235 21.4237911,21.7230364 21.6414281,21.6914119 L27.6591287,20.8169888 C27.9848388,20.7696603 28.2664044,20.565091 28.4120664,20.2699475 L31.1032639,14.8169858 C31.3476862,14.3217321 31.9473121,14.1183931 32.4425657,14.3628154 C32.6397783,14.4601456 32.7994058,14.6197731 32.8967361,14.8169858 L35.5879336,20.2699475 C35.7335956,20.565091 36.0151612,20.7696603 36.3408713,20.8169888 L42.3585719,21.6914119 C42.9051167,21.7708295 43.2837982,22.2782723 43.2043806,22.8248172 C43.1727561,23.0424542 43.0702689,23.2435966 42.9127853,23.3971052 L38.5583362,27.641644 C38.3226501,27.8713812 38.2151017,28.2023814 38.2707396,28.5267754 L39.2986856,34.5201603 C39.3920466,35.0644968 39.0264588,35.5814527 38.4821223,35.6748137 C38.2653647,35.7119906 38.0423966,35.6766759 37.8477361,35.5743368 L32.4653411,32.7446443 C32.1740171,32.5914862 31.8259829,32.5914862 31.5346589,32.7446443 Z" id="星形" fill="#FFFFFF"></path>
                    </g>
                </g>
            </g>
        </g>
    </g>
</svg>