<?xml version="1.0" encoding="UTF-8"?>
<svg width="32px" height="32px" viewBox="0 0 32 32" version="1.1" xmlns="http://www.w3.org/2000/svg" xmlns:xlink="http://www.w3.org/1999/xlink">
    <title>保存</title>
    <g id="页面-1" stroke="none" stroke-width="1" fill="none" fill-rule="evenodd">
        <g id="我的" transform="translate(-64.000000, -943.000000)" fill="#333333" fill-rule="nonzero">
            <g id="编组-11" transform="translate(60.000000, 650.000000)">
                <g id="保存" transform="translate(4.000000, 293.000000)">
                    <path d="M26.6886604,0 L5.3119367,0 C2.38308671,0 0,2.40777505 0,5.36787232 L0,26.6339376 C0,29.5940348 2.38308671,32 5.3119367,32 L26.6880633,32 C29.6178089,32 32,29.5940349 32,26.6339376 L32,5.36817401 C32,2.40777505 29.6169133,0.000904980063 26.6886604,0 Z M8,2 L24,2 L24,14 L8,14 L8,2 Z M29.9996999,26.7036852 C29.9996999,28.5208338 28.5388564,30 26.7431113,30 L5.25658861,30 C3.46084347,30 2,28.5208338 2,26.7036852 L2,5.29661843 C2,3.47855888 3.46084352,2.00121465 5.25658866,2.00121465 L5.25658866,2.00030366 L5.70252402,2.00030366 L5.70252402,16.0501052 L26.2965758,16.0501052 L26.297476,16.0501052 L26.297476,2 L26.7434114,2 C28.5394566,2 30,3.47734423 30,5.29540378 L30,26.7036852 L29.9996999,26.7036852 Z M19,5 L21,5 L21,12 L19,12 L19,5 Z" id="形状"></path>
                </g>
            </g>
        </g>
    </g>
</svg>