<?xml version="1.0" encoding="UTF-8"?>
<svg width="40px" height="39px" viewBox="0 0 40 39" version="1.1" xmlns="http://www.w3.org/2000/svg" xmlns:xlink="http://www.w3.org/1999/xlink">
    <title>形状结合</title>
    <g id="页面-1" stroke="none" stroke-width="1" fill="none" fill-rule="evenodd">
        <g id="首页1备份-11" transform="translate(-679.000000, -109.000000)" fill="#272727">
            <path d="M700.707107,107.707107 C710.648232,107.707107 718.707107,115.765981 718.707107,125.707107 C718.707107,134.626156 712.220159,142.030097 703.706934,143.45826 L703.707107,151.207107 C703.707107,152.587819 702.587819,153.707107 701.207107,153.707107 C699.826395,153.707107 698.707107,152.587819 698.707107,151.207107 L698.706689,143.597203 C689.706989,142.602124 682.707107,134.972071 682.707107,125.707107 C682.707107,115.765981 690.765981,107.707107 700.707107,107.707107 Z M700.707107,112.707107 C693.527405,112.707107 687.707107,118.527405 687.707107,125.707107 C687.707107,132.886809 693.527405,138.707107 700.707107,138.707107 C707.886809,138.707107 713.707107,132.886809 713.707107,125.707107 C713.707107,118.527405 707.886809,112.707107 700.707107,112.707107 Z" id="形状结合" transform="translate(700.707107, 130.707107) rotate(-45.000000) translate(-700.707107, -130.707107) "></path>
        </g>
    </g>
</svg>