<?xml version="1.0" encoding="UTF-8"?>
<svg width="37px" height="34px" viewBox="0 0 37 34" version="1.1" xmlns="http://www.w3.org/2000/svg" xmlns:xlink="http://www.w3.org/1999/xlink">
    <title>设置</title>
    <g id="页面-1" stroke="none" stroke-width="1" fill="none" fill-rule="evenodd">
        <g id="我的" transform="translate(-60.000000, -653.000000)" fill="#333333" fill-rule="nonzero">
            <g id="编组-11" transform="translate(60.000000, 650.000000)">
                <g id="设置" transform="translate(0.000000, 3.000000)">
                    <path d="M36.6047085,18.5241842 L28.8906697,32.3926052 C28.343787,33.3818983 27.2972886,33.9977882 26.1594414,34 L10.8405586,34 C9.70271141,33.9977882 8.65621301,33.3818983 8.10933039,32.3926052 L0.395291455,18.5241842 C-0.131763818,17.5752448 -0.131763818,16.4247552 0.395291455,15.4758158 L8.10933039,1.60739472 C8.65621302,0.618101729 9.70271142,0.00221177272 10.8405586,0 L26.1594414,0 C27.2972886,0.00221175744 28.343787,0.618101715 28.8906697,1.60739472 L36.6047085,15.4758158 C37.1317638,16.4247552 37.1317638,17.5752448 36.6047085,18.5241842 L36.6047085,18.5241842 Z M34.2362604,17.2178684 C34.311398,17.082334 34.311398,16.9181133 34.2362604,16.7825789 L26.535758,2.91415791 C26.4580162,2.77278852 26.3087581,2.68464947 26.1463561,2.68421053 L10.8536439,2.68421053 C10.6912419,2.68464947 10.5419838,2.77278852 10.464242,2.91415791 L2.76373967,16.7825789 C2.68860202,16.9181133 2.68860202,17.082334 2.76373967,17.2178684 L10.464242,31.0862895 C10.5421027,31.227486 10.6913378,31.31544 10.8536439,31.3157895 L26.1463561,31.3157895 C26.3086622,31.31544 26.4578973,31.227486 26.535758,31.0862895 L34.2362604,17.2178684 Z M18.3835855,23.9852105 C14.3961638,23.9852105 11.1640826,20.7807106 11.1640826,16.8273158 C11.1640826,12.873921 14.3961638,9.66942104 18.3835855,9.66942104 C22.3705561,9.66942104 25.6030885,12.873921 25.6030885,16.8273158 C25.6030885,20.7807106 22.370556,23.9852105 18.3835855,23.9852105 Z M18.3835855,21.301 C20.8756677,21.301 22.8957749,19.2981316 22.8957749,16.8273158 C22.8957749,14.3565 20.8756677,12.3536316 18.3835855,12.3536316 C15.8915034,12.3536316 13.8713962,14.3565 13.8713962,16.8273158 C13.8713962,19.2981316 15.8915034,21.301 18.3835855,21.301 Z" id="形状"></path>
                </g>
            </g>
        </g>
    </g>
</svg>