<?xml version="1.0" encoding="UTF-8"?>
<svg width="86px" height="86px" viewBox="0 0 86 86" version="1.1" xmlns="http://www.w3.org/2000/svg" xmlns:xlink="http://www.w3.org/1999/xlink">
    <title>短视频</title>
    <defs>
        <linearGradient x1="50%" y1="0%" x2="50%" y2="100%" id="linearGradient-1">
            <stop stop-color="#FF1370" offset="0%"></stop>
            <stop stop-color="#FF61BF" offset="98.9697645%"></stop>
            <stop stop-color="#FF2BA9" offset="100%"></stop>
        </linearGradient>
    </defs>
    <g id="页面-1" stroke="none" stroke-width="1" fill="none" fill-rule="evenodd">
        <g id="首页1备份-11" transform="translate(-331.000000, -2707.000000)" fill="url(#linearGradient-1)" fill-rule="nonzero">
            <g id="编组-26" transform="translate(-1.000000, 2707.000000)">
                <g id="短视频" transform="translate(332.000000, 0.000000)">
                    <path d="M0,43 C0.196571393,28.7485714 2.67214287,16.9481429 9.90842861,9.90842861 C16.9481429,2.67214287 28.7485714,0.196571393 43,0 C57.2514286,0.196571393 69.0518571,2.67214287 76.0915714,9.90842861 C83.3278571,16.9481429 85.8034286,28.7485714 86,43 C85.8034286,57.2514286 83.3278571,69.0518571 76.0915714,76.0915714 C69.0518571,83.3278571 57.2514286,85.8034286 43,86 C28.7485714,85.8034286 16.9481429,83.3278571 9.90842861,76.0915714 C2.67214287,69.0518571 0.196571393,57.2514286 0,43 Z M60.1912857,38.7675714 L35.5584286,24.8785714 C32.3764286,23.0848571 28.4634286,25.4191428 28.4634286,29.111 L28.4634286,56.9012857 C28.4634286,60.5931429 32.3764286,62.9274286 35.5584286,61.1337143 L60.1912857,47.2385714 C61.711982,46.3720804 62.6509386,44.7563782 62.6509386,43.0061428 C62.6509386,41.2559075 61.711982,39.6402052 60.1912857,38.7737143 L60.1912857,38.7675714 Z" id="形状"></path>
                </g>
            </g>
        </g>
    </g>
</svg>