<?xml version="1.0" encoding="UTF-8"?>
<svg width="48px" height="48px" viewBox="0 0 48 48" version="1.1" xmlns="http://www.w3.org/2000/svg" xmlns:xlink="http://www.w3.org/1999/xlink">
    <title>签到领</title>
    <g id="页面-1" stroke="none" stroke-width="1" fill="none" fill-rule="evenodd">
        <g id="我的" transform="translate(-584.000000, -266.000000)" fill-rule="nonzero">
            <g id="编组-7" transform="translate(30.000000, 165.000000)">
                <g id="签到领" transform="translate(554.000000, 101.000000)">
                    <path d="M17.002753,46.7905116 C-0.378828391,41.2342326 -5.73138653,19.8792558 7.05335764,7.09451163 C16.5127065,-2.36483721 31.1538228,-2.36483721 40.6131716,7.09451163 C51.1006135,17.5819535 49.9452646,34.5466046 38.1517762,43.2284651 C32.1780088,47.6260466 23.9510321,49.011907 17.002753,46.7905116 Z M34.754939,38.1270698 C37.5774507,36.9477209 38.3448925,34.6805582 38.3448925,27.5201861 L38.3448925,21.6418605 L9.87977623,21.6418605 L9.91103206,27.3627907 C9.97131111,38.239814 10.8252646,38.9419535 23.99066,38.9430741 C30.4634041,38.9441861 33.3177297,38.7276279 34.754939,38.1270698 L34.754939,38.1270698 Z M20.5313112,31.4573023 C18.7675902,29.6377675 18.6096367,28.3395349 20.1517762,28.3395349 C20.5463809,28.3395349 21.3316832,28.8502326 21.8965205,29.4742326 C22.9190321,30.6044651 22.9357763,30.5972093 25.7677762,27.7998139 C28.6483344,24.9549768 29.5994041,24.4933954 30.2864739,25.6052093 C30.6927995,26.2615814 24.0062879,33.3627907 22.9821018,33.3627907 C22.6500088,33.3627907 21.5465669,32.5054884 20.5313112,31.4573023 L20.5313112,31.4573023 Z M18.2518693,14.6053954 C18.2518693,14.4848372 17.5608926,14.3899535 16.7169856,14.3944186 C15.6001484,14.4005582 15.3964274,14.5384186 15.9690786,14.9012093 C16.6795902,15.3510698 18.2518693,15.1473489 18.2518693,14.6053954 L18.2518693,14.6053954 Z M32.7634972,14.6053954 C32.7634972,14.4848372 32.0725205,14.3899535 31.2286135,14.3944186 C30.1117763,14.4005582 29.9080553,14.5384186 30.4807065,14.9012093 C31.1912181,15.3510698 32.7634972,15.1473489 32.7634972,14.6053954 Z" id="形状" fill="#FDE9ED"></path>
                    <path d="M15.90266,43.5488372 C11.6161483,39.3851163 9.8580088,37.0230698 9.89931116,35.4837209 C9.91047397,35.0846512 10.2520553,35.3581395 10.6583809,36.092093 C12.0593112,38.6193489 13.3927065,38.9034419 23.9465669,38.9246512 C29.9058228,38.935814 34.354753,38.7036279 35.1567995,38.3386046 C37.7175437,37.172093 38.3448925,35.1594419 38.3448925,28.1134884 L38.3448925,21.6418605 L9.87977623,21.6418605 L9.87977623,17.2632558 C9.87977623,12.2768372 10.638846,11.0372093 13.6913112,11.0372093 C15.3417297,11.0372093 15.4611716,10.9054884 15.4611716,9.08372093 C15.4611716,7.49302324 15.6715902,7.13023259 16.5941949,7.13023259 C17.2176367,7.13023259 18.4996833,8.00930234 19.442939,9.08372093 C21.1313112,11.0065116 21.2273112,11.0372093 25.5657297,11.0372093 L29.9727995,11.0372093 L29.9727995,9.08372093 C29.9727995,7.53376746 30.1927065,7.13023259 31.0377297,7.13023259 C31.6483344,7.13023259 35.4570786,10.3730233 39.9679623,14.7332093 C48.8049856,23.2749768 48.7084274,23.0695814 46.9781949,29.7153489 C45.7765205,34.3272559 43.6561483,37.951814 40.3050786,41.1209302 C35.6769856,45.4978605 29.718846,47.8744186 23.3727995,47.8744186 C20.3655437,47.8744186 20.34266,47.8610233 15.90266,43.5488372 Z M18.1402414,14.8325582 C18.5086135,14.4641861 18.8021948,13.7732093 18.7932646,13.2976744 C18.7793112,12.5854884 18.6754972,12.6055814 18.2072181,13.4093023 C17.89466,13.9462326 17.2862878,14.3860465 16.8565205,14.3860465 C16.4267531,14.3860465 15.8183809,13.9462325 15.5058228,13.4093023 C15.0375437,12.6055814 14.9337297,12.5854884 14.9197762,13.2976744 C14.9002414,14.2961861 15.9601483,15.5023256 16.8565205,15.5023256 C17.1941949,15.5023256 17.7718693,15.2009303 18.1402414,14.8325582 L18.1402414,14.8325582 Z M32.6518693,14.8325582 C33.0202414,14.4641861 33.3138228,13.7732093 33.3048925,13.2976744 C33.290939,12.5854884 33.1871251,12.6055814 32.718846,13.4093023 C32.4062879,13.9462326 31.7979158,14.3860465 31.3681483,14.3860465 C30.9383809,14.3860465 30.3300088,13.9462325 30.0174507,13.4093023 C29.5491716,12.6055814 29.4453576,12.5854884 29.4314042,13.2976744 C29.4118693,14.2961861 30.4717763,15.5023256 31.3681483,15.5023256 C31.7058228,15.5023256 32.2834972,15.2009303 32.6518693,14.8325582 L32.6518693,14.8325582 Z M20.7953112,31.7218605 C19.7571716,30.6385116 19.3474972,29.756093 19.5897297,29.1265116 C19.9184739,28.2692093 20.0970786,28.3054884 21.3478693,29.4809302 L22.7409856,30.7892093 L25.6767995,27.8902326 C28.7476832,24.8567442 29.9727995,24.3142326 29.9727995,25.9841861 C29.9727995,27.0295814 23.9393112,33.3627907 22.9447065,33.3627907 C22.6271251,33.3627907 21.6604274,32.6243721 20.7958693,31.7218605 L20.7953112,31.7218605 Z" id="形状" fill="#D5CECE"></path>
                    <path d="M20.2053576,47.3681861 C19.5914042,47.088 17.4565205,45.1746977 15.4611716,43.1168372 C13.4658228,41.0584186 12.3819158,39.6541395 13.0522414,39.9968372 C13.8118692,40.3841861 17.9767065,40.6186046 24.1034042,40.6186046 C38.2103809,40.6186046 38.3448925,40.5075349 38.3448925,28.8714419 L38.3448925,21.6418605 L9.87977623,21.6418605 L9.87977623,17.2632558 C9.87977623,12.2768372 10.638846,11.0372093 13.6913112,11.0372093 C15.2898228,11.0372093 15.4611716,10.8736744 15.4611716,9.34548837 C15.4611716,6.7668837 16.8693576,6.64409304 19.2916832,9.00893023 C21.3132646,10.9830698 21.4823809,11.0372093 25.6354972,11.0372093 L29.9019158,11.0372093 L30.0771716,9.22772093 C30.18266,8.1343256 30.5945669,7.35348837 31.1181018,7.25469766 C31.6092646,7.16204651 35.4397762,10.4070698 39.9741018,14.7583256 L47.9644274,22.4260465 L47.6016367,25.9691163 C46.6661949,35.095814 40.6360553,43.0710698 32.2935437,46.2156279 C28.9502878,47.4753489 21.9110321,48.1467907 20.2053576,47.3681861 Z M18.1402414,14.8325582 C18.5086135,14.4641861 18.8021948,13.7732093 18.7932646,13.2976744 C18.7793112,12.5854884 18.6754972,12.6055814 18.2072181,13.4093023 C17.89466,13.9462326 17.2862878,14.3860465 16.8565205,14.3860465 C16.4267531,14.3860465 15.8183809,13.9462325 15.5058228,13.4093023 C15.0375437,12.6055814 14.9337297,12.5854884 14.9197762,13.2976744 C14.9002414,14.2961861 15.9601483,15.5023256 16.8565205,15.5023256 C17.1941949,15.5023256 17.7718693,15.2009303 18.1402414,14.8325582 L18.1402414,14.8325582 Z M32.6518693,14.8325582 C33.0202414,14.4641861 33.3138228,13.7732093 33.3048925,13.2976744 C33.290939,12.5854884 33.1871251,12.6055814 32.718846,13.4093023 C32.4062879,13.9462326 31.7979158,14.3860465 31.3681483,14.3860465 C30.9383809,14.3860465 30.3300088,13.9462325 30.0174507,13.4093023 C29.5491716,12.6055814 29.4453576,12.5854884 29.4314042,13.2976744 C29.4118693,14.2961861 30.4717763,15.5023256 31.3681483,15.5023256 C31.7058228,15.5023256 32.2834972,15.2009303 32.6518693,14.8325582 L32.6518693,14.8325582 Z M20.7953112,31.7218605 C19.7571716,30.6385116 19.3474972,29.756093 19.5897297,29.1265116 C19.9223809,28.2586046 20.0714042,28.2809302 21.2328925,29.372093 C21.9350321,30.0323721 22.7543809,30.572093 23.0529856,30.572093 C23.3515902,30.572093 24.8334507,29.3162791 26.3448925,27.7813954 C29.1646135,24.9181395 29.9727995,24.456 29.9727995,25.7045582 C29.9727995,26.3771163 23.3086135,33.3627907 22.666753,33.3627907 C22.5021019,33.3627907 21.6604274,32.6243721 20.7953112,31.7218605 L20.7953112,31.7218605 Z" id="形状" fill="#F6A3B4"></path>
                    <path d="M21.1642414,31.5348837 C20.1763344,30.5157209 19.3681483,29.5054884 19.3681483,29.2894884 C19.3681483,28.4852093 20.9052646,28.9367442 21.8970786,30.0329302 C22.9201483,31.1631628 22.9396833,31.1536744 26.10266,28.0241861 C28.2693576,25.8798139 29.4129855,25.0950698 29.6981949,25.556093 C29.9605205,25.9813954 28.7878693,27.5603721 26.5385669,29.8102326 L22.9608925,33.387907 L21.1642414,31.5348837 Z M9.87977623,17.4558139 C9.87977623,12.6775814 10.8693576,11.0372093 13.7515902,11.0372093 C15.1927065,11.0372093 15.4114972,10.8184186 15.5655437,9.2232558 C15.698939,7.83962791 16.0053576,7.40930234 16.8565205,7.40930234 C17.7076833,7.40930234 18.0141019,7.83962791 18.1474972,9.2232558 L18.322753,11.0372093 L29.9019158,11.0372093 L30.0771716,9.2232558 C30.2105669,7.83962791 30.5169856,7.40930234 31.3681483,7.40930234 C32.2193112,7.40930234 32.5257297,7.83962791 32.6591251,9.2232558 C32.8098228,10.7810232 33.0481483,11.0372093 34.3491716,11.0372093 C35.1824739,11.0372093 36.4221019,11.427907 37.1041483,11.9062326 C38.2092646,12.679814 38.3448925,13.259721 38.3448925,17.2085582 L38.3448925,21.6418605 L9.87977623,21.6418605 L9.87977623,17.4558139 Z M18.1402414,14.8325582 C18.5086135,14.4641861 18.8021948,13.7737675 18.7932646,13.2976744 C18.7793112,12.5854884 18.6754972,12.6055814 18.2072181,13.4093023 C17.89466,13.9462326 17.2862878,14.3860465 16.8565205,14.3860465 C16.4267531,14.3860465 15.8183809,13.9462325 15.5058228,13.4093023 C15.0375437,12.6055814 14.9337297,12.5854884 14.9197762,13.2976744 C14.9002414,14.2961861 15.9601483,15.5023256 16.8565205,15.5023256 C17.1941949,15.5023256 17.7718693,15.2009303 18.1402414,14.8325582 L18.1402414,14.8325582 Z M32.6518693,14.8325582 C33.0202414,14.4641861 33.3138228,13.7737675 33.3048925,13.2976744 C33.290939,12.5854884 33.1871251,12.6055814 32.718846,13.4093023 C32.4062879,13.9462326 31.7979158,14.3860465 31.3681483,14.3860465 C30.9383809,14.3860465 30.3300088,13.9462325 30.0174507,13.4093023 C29.5491716,12.6055814 29.4453576,12.5854884 29.4314042,13.2976744 C29.4118693,14.2961861 30.4717763,15.5023256 31.3681483,15.5023256 C31.7058228,15.5023256 32.2834972,15.2009303 32.6518693,14.8325582 L32.6518693,14.8325582 Z" id="形状" fill="#FC6685"></path>
                    <path d="M20.7690786,31.1358139 C18.8434972,29.1265116 19.3407995,28.1531163 21.3355902,30.0273489 L22.7409856,31.3473489 L25.6767995,28.4483721 C28.3636832,25.7944186 29.9727995,24.8718139 29.9727995,25.9841861 C29.9727995,26.6344186 23.6144739,32.8046512 22.9447065,32.8046512 C22.6271251,32.8046512 21.6481483,32.0539535 20.7690786,31.1358139 Z M9.87977623,17.7097675 C9.87977623,14.2788837 10.0544739,13.6024186 11.2500088,12.4074419 C12.0034972,11.6539535 13.2431251,11.0372093 14.0044274,11.0372093 C15.1597763,11.0372093 15.418753,10.735814 15.5649856,9.2232558 C15.6983809,7.83962791 16.0047995,7.40930234 16.8559623,7.40930234 C17.7071251,7.40930234 18.0135437,7.83962791 18.146939,9.2232558 L18.3221949,11.0372093 L29.9013576,11.0372093 L30.0766135,9.2232558 C30.2100088,7.83962791 30.5164274,7.40930234 31.3675902,7.40930234 C32.218753,7.40930234 32.5251716,7.83962791 32.6585669,9.2232558 C32.8126135,10.8184186 33.0314041,11.0372093 34.4725205,11.0372093 C37.3553112,11.0372093 38.3448925,12.6775814 38.3448925,17.4558139 L38.3448925,21.6418605 L9.87977623,21.6418605 L9.87977623,17.7097675 Z M18.6615437,13.5488372 C18.7809855,12.0195349 18.7463809,11.9832558 18.2607995,13.1302326 C17.9688925,13.8212093 17.3365205,14.3860465 16.8565205,14.3860465 C16.3765205,14.3860465 15.7564274,13.8212093 15.4784739,13.1302326 C14.9817297,11.8950698 14.9733576,11.8984186 14.9381949,13.316093 C14.8935437,15.1546046 15.354567,15.5933023 17.114939,15.3884651 C18.2434972,15.2567442 18.5577297,14.8833489 18.6615437,13.5488372 L18.6615437,13.5488372 Z M33.1731716,13.5488372 C33.2926135,12.0195349 33.2580088,11.9832558 32.7724274,13.1302326 C32.4805205,13.8212093 31.8481483,14.3860465 31.3681483,14.3860465 C30.8881483,14.3860465 30.2680553,13.8212093 29.9901018,13.1302326 C29.4933576,11.8950698 29.4849855,11.8984186 29.4498228,13.316093 C29.4051716,15.1546046 29.8661949,15.5933023 31.6265669,15.3884651 C32.7551251,15.2567442 33.0693576,14.8833489 33.1731716,13.5488372 L33.1731716,13.5488372 Z" id="形状" fill="#FC1747"></path>
                    <path d="M9.87977623,20.8046512 C9.87977623,20.0824186 11.8332646,19.9674419 24.1123344,19.9674419 C36.3914041,19.9674419 38.3448925,20.0824186 38.3448925,20.8046512 C38.3448925,21.5268837 36.3914042,21.6418605 24.1123344,21.6418605 C11.8332646,21.6418605 9.87977623,21.5268837 9.87977623,20.8046512 Z M15.7050786,13.6587907 C15.5342879,13.2133954 15.4723344,11.6249303 15.5672181,10.1291163 C15.7128925,7.83906977 15.9166134,7.40930234 16.8565205,7.40930234 C17.8483344,7.40930234 17.9727995,7.78158138 17.9727995,10.7503256 C17.9727995,13.4907907 17.7969855,14.1253954 16.9943809,14.28 C16.4563344,14.383814 15.8758693,14.1041861 15.7050786,13.6587907 Z M30.2167065,13.6587907 C30.0459158,13.2133954 29.9839623,11.6249303 30.078846,10.1291163 C30.2245205,7.83906977 30.4282414,7.40930234 31.3681483,7.40930234 C32.3599623,7.40930234 32.4844274,7.78158138 32.4844274,10.7503256 C32.4844274,13.4907907 32.3086135,14.1253954 31.5060088,14.28 C30.9679623,14.383814 30.3874972,14.1041861 30.2167065,13.6587907 Z" id="形状" fill="#D30A34"></path>
                    <path d="M15.7050786,13.6587907 C15.5342879,13.2133954 15.4723344,11.6249303 15.5672181,10.1291163 C15.7128925,7.83906977 15.9166134,7.40930234 16.8565205,7.40930234 C17.8483344,7.40930234 17.9727995,7.78158138 17.9727995,10.7503256 C17.9727995,13.4907907 17.7969855,14.1253954 16.9943809,14.28 C16.4563344,14.383814 15.8758693,14.1041861 15.7050786,13.6587907 Z M30.2167065,13.6587907 C30.0459158,13.2133954 29.9839623,11.6249303 30.078846,10.1291163 C30.2245205,7.83906977 30.4282414,7.40930234 31.3681483,7.40930234 C32.3599623,7.40930234 32.4844274,7.78158138 32.4844274,10.7503256 C32.4844274,13.4907907 32.3086135,14.1253954 31.5060088,14.28 C30.9679623,14.383814 30.3874972,14.1041861 30.2167065,13.6587907 Z" id="形状" fill="#473B3C"></path>
                </g>
            </g>
        </g>
    </g>
</svg>