<?xml version="1.0" encoding="UTF-8"?>
<svg width="92px" height="26px" viewBox="0 0 92 26" version="1.1" xmlns="http://www.w3.org/2000/svg" xmlns:xlink="http://www.w3.org/1999/xlink">
    <title>编组 32</title>
    <g id="页面-1" stroke="none" stroke-width="1" fill="none" fill-rule="evenodd">
        <g id="小说详情" transform="translate(-238.000000, -538.000000)" fill="#FF1370">
            <g id="编组-32" transform="translate(238.000000, 538.000000)">
                <path d="M86.2044848,17 C85.7614061,18.2399964 85.4545981,19.0593426 85.2840609,19.4580386 C85.0282552,20.0560826 84.6956451,20.4114772 83.9255859,20.8258218 C83.4122131,21.1020515 82.7638628,21.3289663 81.9805349,21.5065662 C82.5940035,21.5646034 83.1351712,21.6594889 83.604038,21.7912227 C84.0729048,21.9229565 84.5260127,22.1074248 84.9633616,22.3446275 C85.1922921,22.4889488 85.4284676,22.8215073 85.6718879,23.3423031 C85.9153083,23.8630989 86.0928406,24.4156646 86.2044848,25 L86.6439042,23.3423031 C87.0048482,22.487511 87.5032417,21.9704842 88.1390849,21.7912227 C88.774928,21.6119612 89.4406515,21.5170757 90.1362555,21.5065662 C89.1920176,21.2617973 88.5262941,21.0348826 88.1390849,20.8258218 C87.7518756,20.616761 87.4267273,20.3086875 87.1636401,19.9016013 C87.0094725,19.7437765 86.8362272,19.3739598 86.6439042,18.7921512 C86.4515812,18.2103426 86.305108,17.6129588 86.2044848,17 Z" id="路径-4" transform="translate(86.058395, 21.000000) rotate(-15.000000) translate(-86.058395, -21.000000) "></path>
                <path d="M3.1679624,9 C2.83565335,9.9299973 2.60554738,10.5445069 2.47764451,10.8435289 C2.2857902,11.2920619 2.03633266,11.5586079 1.45878824,11.8693663 C1.07375863,12.0765386 0.587495884,12.2467247 0,12.3799246 C0.460101404,12.4234525 0.865977172,12.4946167 1.2176273,12.593417 C1.56927743,12.6922174 1.90910833,12.8305686 2.23711998,13.0084706 C2.40881788,13.1167116 2.58594947,13.3661305 2.76851476,13.7567273 C2.95108005,14.1473242 3.08422926,14.5617484 3.1679624,15 L3.49752696,13.7567273 C3.76823494,13.1156333 4.1420301,12.7278632 4.61891244,12.593417 C5.09579479,12.4589709 5.59508745,12.3878068 6.11679044,12.3799246 C5.40861204,12.196348 4.90931938,12.0261619 4.61891244,11.8693663 C4.32850551,11.7125708 4.08464431,11.4815157 3.88732885,11.176201 C3.7717032,11.0578324 3.64176924,10.7804699 3.49752696,10.3441134 C3.35328468,9.90775693 3.24342982,9.45971913 3.1679624,9 Z" id="路径-4备份" transform="translate(3.058395, 12.000000) rotate(-360.000000) translate(-3.058395, -12.000000) "></path>
                <path d="M77.2775296,0 C76.6129115,1.8599946 76.1526995,3.08901389 75.8968938,3.68705788 C75.5131852,4.58412386 75.0142701,5.11721586 73.8591813,5.7387327 C73.089122,6.15307726 72.1165965,6.49344944 70.9416048,6.75984924 C71.8618076,6.84690504 72.6735591,6.98923332 73.3768594,7.18683407 C74.0801596,7.38443481 74.7598214,7.66113722 75.4158447,8.01694129 C75.7592405,8.23342315 76.1135037,8.73226094 76.4786343,9.51345467 C76.8437649,10.2946484 77.1100633,11.1234968 77.2775296,12 L77.9366587,9.51345467 C78.4780747,8.23126654 79.225665,7.45572634 80.1794297,7.18683407 C81.1331944,6.91794179 82.1317797,6.77561351 83.1751857,6.75984924 C81.7588289,6.39269601 80.7602435,6.05232383 80.1794297,5.7387327 C79.5986158,5.42514157 79.1108934,4.96303132 78.7162625,4.35240195 C78.4850112,4.11566477 78.2251433,3.56093972 77.9366587,2.68822679 C77.6481741,1.81551387 77.4284644,0.919438267 77.2775296,0 Z" id="路径-4备份-2" transform="translate(77.058395, 6.000000) rotate(-360.000000) translate(-77.058395, -6.000000) "></path>
            </g>
        </g>
    </g>
</svg>