<?xml version="1.0" encoding="UTF-8"?>
<svg width="190px" height="220px" viewBox="0 0 190 220" version="1.1" xmlns="http://www.w3.org/2000/svg" xmlns:xlink="http://www.w3.org/1999/xlink">
    <title>编组 12备份 6</title>
    <defs>
        <rect id="path-1" x="0" y="0" width="190" height="220" rx="22"></rect>
    </defs>
    <g id="页面-1" stroke="none" stroke-width="1" fill="none" fill-rule="evenodd">
        <g id="我的" transform="translate(-500.000000, -1278.000000)">
            <g id="编组-12备份-6" transform="translate(500.000000, 1278.000000)">
                <g id="矩形-3">
                    <mask id="mask-2" fill="white">
                        <use xlink:href="#path-1"></use>
                    </mask>
                    <use id="矩形" fill="#FEF2EB" xlink:href="#path-1"></use>
                    <g id="合作" opacity="0.0299944196" mask="url(#mask-2)">
                        <g transform="translate(50.000000, 90.000000)" id="联系">
                            <path d="M119.618349,162 C116.81385,162 114.208566,161.599175 112.006139,160.797526 L111.804711,160.797526 C108.800998,159.995876 81.756513,151.578557 46.0971051,115.90294 C11.6418386,81.0289731 2.62627258,53.571371 1.42434468,49.9639483 C-1.7807964,42.1489731 0.623059408,30.9192368 6.63269892,24.718633 L20.4559765,10.8890722 C23.2140868,8.10688278 26.9561976,6.52296243 30.872685,6.48 C35.279754,6.48 39.4876084,8.69450134 42.2921068,12.293066 L62.5234531,38.3466743 C65.5293796,42.1556166 65.7308077,48.3695073 63.3247384,52.3777547 L53.1094579,69.411699 C53.7115286,71.8166475 56.5138136,80.2339671 68.7345207,93.2618785 C82.1571557,105.884536 90.1700083,108.293914 92.3746496,108.896258 L109.400855,98.6741197 C111.61435,97.2701259 114.009352,97.0708208 115.611922,97.0708208 C118.617849,97.0708208 121.422347,97.8724702 123.42556,99.4757692 L149.467332,119.716311 C152.873901,122.522085 155.076329,126.138365 155.275543,130.345918 C155.474758,134.55347 154.075829,138.563932 150.870688,141.569011 L137.246625,155.179336 C133.040984,159.386888 126.230059,161.993356 119.618349,161.993356 L119.618349,162 Z" id="路径" fill="#FF5E00" fill-rule="nonzero"></path>
                            <path d="M144.185852,100.44 C141.776059,100.446878 139.598989,98.9923029 138.6683,96.7535112 C137.737611,94.5147195 138.23625,91.9317916 139.932047,90.2073564 C157.530343,72.1890487 157.32715,43.0905941 139.477071,25.3281019 C121.587237,7.53224249 92.6542961,7.70575212 74.9853244,25.7196108 L74.9256916,25.7796718 C73.4264692,27.308337 71.2314123,27.9153123 69.1673776,27.3719561 C67.1033429,26.8285998 65.4839065,25.2174608 64.9190942,23.1454394 C64.354282,21.0734181 64.9299024,18.8553037 66.4291249,17.3266386 L66.4732973,17.2843735 C66.4787585,17.2766219 66.4854786,17.2698535 66.4931749,17.2643531 C80.9251637,2.52209257 102.069695,-3.34565139 121.96183,1.87144359 C141.853964,7.08853857 157.471612,22.5978717 162.931758,42.5572272 C168.391903,62.5165827 162.86502,83.8936598 148.433031,98.6359203 C147.314616,99.7863266 145.784435,100.436295 144.185852,100.44 L144.185852,100.44 Z" id="路径" fill="#FF5E00" fill-rule="nonzero"></path>
                            <path d="M120.759414,80.4442581 C119.878133,78.1455525 120.414028,75.5136146 122.112844,73.7971623 C126.727904,69.1139211 128.619167,62.1943812 127.074212,55.6450663 C125.529257,49.0957514 120.782799,43.9116582 114.622783,42.0455844 C108.462767,40.1795107 101.825046,41.9149574 97.2099849,46.5981985 L97.1203525,46.6880679 C94.8220181,49.0121555 91.169253,48.9347013 88.9616734,46.5150692 C86.7540937,44.0954371 86.8276649,40.2498924 89.1259992,37.9258046 L89.2113634,37.8404288 C94.8410631,32.1313665 102.394584,29.0108478 110.209915,29.165485 C118.025245,29.3201222 125.462055,32.7372455 130.884011,38.6649802 C142.156348,50.9838236 141.810623,70.6629681 130.115733,82.5324647 C129.043821,83.62678 127.609562,84.2391414 126.116423,84.2400173 C123.761818,84.2458924 121.640694,82.7429637 120.759414,80.4442581 Z" id="路径" fill="#FF5E00" fill-rule="nonzero"></path>
                        </g>
                    </g>
                </g>
                <text id="联系客服时间" font-family="MiSans-Heavy, MiSans" font-size="26" font-weight="800" fill="#FF5E00">
                    <tspan x="18" y="50">联系客服时间</tspan>
                </text>
                <text id="11:00～次日03:00" font-family="PingFangSC-Regular, PingFang SC" font-size="20" font-weight="normal" line-spacing="24" fill="#FF5E00">
                    <tspan x="18" y="90">11:00～次日03:00</tspan>
                </text>
                <g id="合作" transform="translate(22.000000, 147.000000)" fill="#FF5E00" fill-rule="nonzero">
                    <g id="联系">
                        <path d="M36.9729441,50 C36.1060992,50 35.3008296,49.8762887 34.6200792,49.628866 L34.5578196,49.628866 C33.6293992,49.3814433 25.2701949,46.7835052 14.2481961,35.7725124 C3.59838647,25.0089423 0.811756979,16.5343738 0.440251991,15.4209717 C-0.550427977,13.0089423 0.192581999,9.54297431 2.05010694,7.62920772 L6.32275638,3.36082474 C7.17526319,2.50212431 8.33191562,2.01326001 9.54246628,2 C10.9046512,2 12.2052608,2.68348807 13.0721057,3.79415618 L19.325431,11.8353933 C20.2545355,13.0109928 20.3167951,14.9288603 19.5731009,16.1659737 L16.4156506,21.4233639 C16.6017452,22.1656319 17.467906,24.7635701 21.2452155,28.7845304 C25.3940299,32.6804124 27.8707298,33.4240474 28.5521644,33.6099561 L33.8148097,30.4549752 C34.4989809,30.0216438 35.2392542,29.9601299 35.7345942,29.9601299 C36.6636987,29.9601299 37.5305437,30.2075525 38.1497187,30.7023979 L46.1989934,36.9494788 C47.251933,37.8154582 47.9326834,38.9315942 47.9942588,40.2302216 C48.0558342,41.5288489 47.623438,42.7666458 46.632758,43.6941391 L42.421684,47.8948568 C41.1217586,49.1934841 39.0165637,49.9979495 36.9729441,49.9979495 L36.9729441,50 Z" id="路径"></path>
                        <path d="M44.5665361,31 C43.821691,31.0021227 43.1487784,30.5531799 42.8611109,29.8621948 C42.5734435,29.1712097 42.7275683,28.3740097 43.2517236,27.8417767 C48.6911969,22.2805706 48.6283917,13.2995661 43.1110947,7.8173154 C37.5815097,2.3247662 28.6386006,2.37831856 23.1772821,7.93815149 L23.1588501,7.95668884 C22.6954541,8.42849907 22.016982,8.61583713 21.3790076,8.44813459 C20.7410333,8.28043205 20.2404802,7.78316691 20.0659019,7.14365415 C19.8913235,6.50414139 20.0692426,5.81953819 20.5326386,5.34772797 L20.5462919,5.33468316 C20.5479799,5.33229071 20.550057,5.33020171 20.5524359,5.32850405 C25.0132324,0.778423632 31.548815,-1.03260846 37.6972928,0.577606045 C43.8457707,2.18782055 48.6730438,6.97465175 50.3607251,13.1349467 C52.0484065,19.2952416 50.3400971,25.8931049 45.8793005,30.4431853 C45.5336087,30.798249 45.0606436,30.9988564 44.5665361,31 L44.5665361,31 Z" id="路径"></path>
                        <path d="M37.3256369,24.8284747 C37.0532413,24.1189977 37.2188815,23.3066712 37.7439698,22.7769019 C39.1704432,21.3314571 39.7550154,19.1957967 39.2774838,17.1744032 C38.7999521,15.1530097 37.3328651,13.5529809 35.4288601,12.9770322 C33.5248552,12.4010835 31.4731959,12.9367152 30.0467226,14.38216 L30.0190181,14.4098975 C29.3086238,15.1272085 28.1795873,15.1033029 27.4972445,14.3565028 C26.8149017,13.6097028 26.8376419,12.4228063 27.5480361,11.7054953 L27.5744214,11.6791447 C29.3145104,9.91708843 31.6492352,8.95396536 34.0648828,9.0016929 C36.4805304,9.04942043 38.7791805,10.1040881 40.4550579,11.9336359 C43.9392347,15.735748 43.8323743,21.8095581 40.2175903,25.4729829 C39.886272,25.8107346 39.4429555,25.999735 38.9814397,26 C38.2536527,26.0018186 37.5980326,25.5379517 37.3256369,24.8284747 Z" id="路径"></path>
                    </g>
                </g>
            </g>
        </g>
    </g>
</svg>