<?xml version="1.0" encoding="UTF-8"?>
<svg width="44px" height="44px" viewBox="0 0 44 44" version="1.1" xmlns="http://www.w3.org/2000/svg" xmlns:xlink="http://www.w3.org/1999/xlink">
    <title>VIP (3)</title>
    <g id="页面-1" stroke="none" stroke-width="1" fill="none" fill-rule="evenodd">
        <g id="影片" transform="translate(-283.000000, -868.000000)" fill-rule="nonzero">
            <g id="编组-11" transform="translate(30.000000, 466.000000)">
                <g id="编组-3" transform="translate(0.000000, 129.000000)">
                    <g id="VIP-(3)" transform="translate(253.000000, 273.000000)">
                        <polygon id="路径" fill="#FFD200" points="24.9457352 0 0 0 44 44 44 19.667611"></polygon>
                        <path d="M22.7833579,4 L24.8120866,6.08599415 L21.9986382,10.6775169 C21.3554577,11.7827611 20.6596114,12.7670366 20.0054589,13.8828573 L20.0592219,13.9381635 C21.1746386,13.2967429 22.1928432,12.6434237 23.2975073,12.0130203 L27.9248519,9.28626658 L29.8783125,11.2946997 L19.2971046,16.8414126 L17,14.4797684 L22.7833579,4 L22.7833579,4 Z M30.7040676,12.1436841 L32.6254898,14.1190657 L24.4486929,22.1380353 L22.5272707,20.1626537 L30.7040676,12.1436841 Z M34.4604523,16.0054285 L37.2620509,18.8857618 C39.0221842,20.6956652 39.8341146,22.8107448 37.8117497,24.7938384 C35.8666279,26.7013541 33.5388017,26.0304074 31.853717,24.2978446 L30.9197777,23.337807 L28.2050776,26 L26.2836554,24.0243981 L34.4604523,16.0054285 L34.4604523,16.0054285 Z M33.306414,22.6787589 C34.2403534,23.6387965 35.1415961,23.6603902 35.9440905,22.8737631 C36.7683095,22.0653219 36.5387746,21.255118 35.6158073,20.3063179 L34.8321848,19.5007412 L32.469248,21.8180962 L33.306414,22.6787589 Z" id="形状" fill="#D81E06"></path>
                    </g>
                </g>
            </g>
        </g>
    </g>
</svg>