<?xml version="1.0" encoding="UTF-8"?>
<svg width="39px" height="20px" viewBox="0 0 39 20" version="1.1" xmlns="http://www.w3.org/2000/svg" xmlns:xlink="http://www.w3.org/1999/xlink">
    <title>VIP (1)</title>
    <g id="页面-1" stroke="none" stroke-width="1" fill="none" fill-rule="evenodd">
        <g id="小说详情" transform="translate(-359.000000, -624.000000)" fill-rule="nonzero">
            <g id="编组-8" transform="translate(29.000000, 624.000000)">
                <g id="编组-14" transform="translate(252.000000, 0.000000)">
                    <g id="VIP-(1)" transform="translate(78.000000, 0.000000)">
                        <path d="M31.2,0 L7.2,0 C3.2235498,0 0,3.2235498 0,7.2 L0,12 C0,15.9764502 3.2235498,19.2 7.2,19.2 L31.2,19.2 C35.1764502,19.2 38.4,15.9764502 38.4,12 L38.4,7.2 C38.4,5.29044127 37.6414307,3.4590931 36.2911688,2.10883118 C34.9409069,0.758569251 33.1095587,0 31.2,0 L31.2,0 Z" id="形状" fill="#FFB14E"></path>
                        <path d="M11.772,15.6000024 L11.64,15.6000024 C11.1350117,15.5416788 10.7215627,15.1714978 10.608,14.676 L8.424,5.076 C8.27819683,4.4132583 8.6972583,3.75780317 9.36,3.612 C10.0227417,3.46619683 10.6781968,3.8852583 10.824,4.548 L12.192,10.8 L15.372,4.272 C15.5403038,3.85491557 15.9277056,3.56696154 16.3756007,3.52602806 C16.8234958,3.48509458 17.2566765,3.69805494 17.497796,4.07772186 C17.7389155,4.45738879 17.7474865,4.94001099 17.52,5.328 L12.852,14.928 C12.6500959,15.3400692 12.2308741,15.6009183 11.772,15.6000024 L11.772,15.6000024 Z" id="路径" fill="#FFFFFF"></path>
                        <path d="M19.536,14.604 C19.4356471,15.186091 18.9266157,15.6085871 18.336,15.6 C18.2644885,15.6118618 18.1915115,15.6118618 18.12,15.6 C17.4725561,15.4841168 17.0390511,14.8686467 17.148,14.22 L18.84,4.62 C18.9128822,4.19128129 19.2089468,3.83401105 19.6166692,3.68276952 C20.0243916,3.53152798 20.481829,3.60929234 20.8166692,3.88676952 C21.1515094,4.16424669 21.3128822,4.59928129 21.24,5.028 L19.536,14.604 Z" id="路径" fill="#FFFFFF"></path>
                        <path d="M30.408,7.404 C30.0362986,9.33735768 28.3681494,10.7507895 26.4,10.8 L25.008,10.8 L24.336,14.604 C24.2356471,15.186091 23.7266157,15.6085871 23.136,15.6 C23.0644885,15.6118618 22.9915115,15.6118618 22.92,15.6 C22.2725561,15.4841168 21.8390511,14.8686467 21.948,14.22 L22.8,9.42 C22.8897233,8.82835433 23.401628,8.39323538 24,8.4 L26.4,8.4 C27.1993238,8.34985846 27.8693742,7.77762563 28.044,6.996 C28.1058649,6.74097065 28.048468,6.47164694 27.888,6.264 C27.726321,6.08507124 27.4928641,5.98816459 27.252,6 L24.852,6 C24.1892583,6 23.652,5.4627417 23.652,4.8 C23.652,4.1372583 24.1892583,3.6 24.852,3.6 L27.252,3.6 C28.2005826,3.58769216 29.1058504,3.99638099 29.724,4.716 C30.3387683,5.46651812 30.5892634,6.45092025 30.408,7.404 L30.408,7.404 Z" id="路径" fill="#FFFFFF"></path>
                    </g>
                </g>
            </g>
        </g>
    </g>
</svg>