<?xml version="1.0" encoding="UTF-8"?>
<svg width="190px" height="220px" viewBox="0 0 190 220" version="1.1" xmlns="http://www.w3.org/2000/svg" xmlns:xlink="http://www.w3.org/1999/xlink">
    <title>编组 12备份 3</title>
    <defs>
        <rect id="path-1" x="0" y="0" width="190" height="220" rx="22"></rect>
    </defs>
    <g id="页面-1" stroke="none" stroke-width="1" fill="none" fill-rule="evenodd">
        <g id="我的" transform="translate(-500.000000, -1028.000000)">
            <g id="编组-12备份-3" transform="translate(500.000000, 1028.000000)">
                <g id="矩形-3">
                    <mask id="mask-2" fill="white">
                        <use xlink:href="#path-1"></use>
                    </mask>
                    <use id="矩形" fill="#F7F7FF" xlink:href="#path-1"></use>
                    <g id="客服" opacity="0.0267624628" mask="url(#mask-2)" fill="#2A3D81" fill-rule="nonzero">
                        <g transform="translate(57.000000, 82.000000)">
                            <path d="M89.5,132 C58.2959117,132 33,106.704088 33,75.5 C33,44.2959117 58.2959117,19 89.5,19 C120.704088,19 146,44.2959117 146,75.5 C146,106.704088 120.704088,132 89.5,132 Z M89.5000001,107.785714 C107.337857,107.785714 121.785714,94.2902858 121.785714,87.6071429 C121.785714,80.9240001 107.337857,91.6428571 89.5000001,91.6428571 C71.6621428,91.6428571 57.2142857,80.9240001 57.2142857,87.6071429 C57.2142857,94.2902858 71.6621428,107.785714 89.5000001,107.785714 Z" id="形状"></path>
                            <path d="M127.100288,149.505874 C124.941983,154.80125 119.387301,157.844368 113.797661,156.793684 C108.208022,155.743001 104.118753,150.88711 104.004479,145.164559 C103.890206,139.442008 107.782315,134.424632 113.325494,133.148699 C118.868674,131.872767 124.540356,134.688744 126.908319,139.89254 C144.825409,126.559472 155.991595,104.595337 155.991595,80.473435 C155.991595,40.4420273 125.500547,8.05136906 88.0026381,8.05136906 C50.5047288,8.05136906 20.0136812,40.4339759 20.0136812,80.4814864 C20.0117903,88.7749264 21.3462353,97.0137769 23.9650395,104.877135 C24.4696338,106.251527 24.1925112,107.793354 23.2415045,108.902665 C22.2904978,110.011976 20.8158074,110.513568 19.3912592,110.212265 C17.966711,109.910961 16.8172958,108.854349 16.3902697,107.453573 C15.6279696,105.186229 14.9634564,102.886756 14.3985932,100.561601 C6.52755599,99.7656697 0.416339785,93.2984313 0.0203028987,85.3456721 C-0.375733988,77.3929129 5.06234277,70.3429359 12.8148504,68.7586928 C18.17398,29.9027852 49.7528508,0 88.0026381,0 C126.252425,0 157.831296,29.9027852 163.190426,68.7586928 C170.943403,70.345769 176.379365,77.3991318 175.979286,85.3527144 C175.579207,93.3062971 169.463269,99.7709021 161.590685,100.561601 C156.647488,120.963771 144.273498,138.580166 127.100288,149.505874 Z" id="路径"></path>
                        </g>
                    </g>
                </g>
                <text id="联系客服" font-family="MiSans-Heavy, MiSans" font-size="26" font-weight="800" fill="#4A72FF">
                    <tspan x="24" y="50">联系客服</tspan>
                </text>
                <text id="Oliver@gmail" font-family="PingFangSC-Regular, PingFang SC" font-size="20" font-weight="normal" line-spacing="24" fill="#4A72FF">
                    <tspan x="24" y="90">Oliver@gmail</tspan>
                </text>
                <g id="客服" transform="translate(20.000000, 142.000000)" fill="#4A72FF" fill-rule="nonzero">
                    <path d="M32.5,48 C21.1781626,48 12,38.8218374 12,27.5 C12,16.1781626 21.1781626,7 32.5,7 C43.8218374,7 53,16.1781626 53,27.5 C53,38.8218374 43.8218374,48 32.5,48 Z M32.5,39.2142858 C38.9721429,39.2142858 44.2142858,34.3177143 44.2142858,31.8928572 C44.2142858,29.468 38.9721429,33.3571429 32.5,33.3571429 C26.0278571,33.3571429 20.7857143,29.468 20.7857143,31.8928572 C20.7857143,34.3177143 26.0278571,39.2142858 32.5,39.2142858 Z" id="形状"></path>
                    <path d="M46.2182864,54.2792028 C45.4334484,56.2017275 43.413564,57.3065539 41.3809678,56.9250955 C39.3483715,56.5436371 37.8613647,54.7806707 37.8198106,52.7030565 C37.7782565,50.6254423 39.193569,48.8038472 41.2092706,48.3406106 C43.2249723,47.877374 45.2874022,48.899735 46.1484796,50.7890112 C52.6637849,45.9483434 56.7242163,37.9741032 56.7242163,29.21647 C56.7242163,14.6827742 45.6365627,2.92310851 32.0009593,2.92310851 C18.3653559,2.92310851 7.27770224,14.6798511 7.27770224,29.2193932 C7.27701467,32.2303873 7.76226738,35.2215623 8.71455981,38.0764121 C8.89804867,38.5753953 8.7972768,39.1351667 8.45145618,39.5379102 C8.10563555,39.9406536 7.56938449,40.1227605 7.05136698,40.01337 C6.53334946,39.9039796 6.1153803,39.5203688 5.96009807,39.0118068 C5.68289805,38.1886308 5.44125689,37.3537903 5.23585207,36.5096259 C2.37365673,36.2206572 0.151396286,33.8726789 0.00738287224,30.9853714 C-0.136630541,28.0980639 1.84085192,25.5385181 4.65994561,24.9633471 C6.60872001,10.8564252 18.0919458,0 32.0009593,0 C45.9099728,0 57.3931986,10.8564252 59.341973,24.9633471 C62.1612373,25.5395467 64.1379508,28.1003217 63.9924677,30.9879282 C63.8469845,33.8755346 61.6230067,36.2225568 58.7602492,36.5096259 C56.962723,43.9167829 52.4630903,50.3125445 46.2182864,54.2792028 Z" id="路径"></path>
                </g>
            </g>
        </g>
    </g>
</svg>