<?xml version="1.0" encoding="UTF-8"?>
<svg width="356px" height="96px" viewBox="0 0 356 96" version="1.1" xmlns="http://www.w3.org/2000/svg" xmlns:xlink="http://www.w3.org/1999/xlink">
    <title>编组 3备份</title>
    <g id="页面-1" stroke="none" stroke-width="1" fill="none" fill-rule="evenodd">
        <g id="升级会员" transform="translate(-364.000000, -1462.000000)">
            <g id="编组-3备份" transform="translate(364.000000, 1462.000000)">
                <path d="M20.9411765,0 L308,0 C334.509668,-1.19751744e-14 356,21.490332 356,48 C356,74.509668 334.509668,96 308,96 L0,96 L0,96 L20.9411765,0 Z" id="矩形" fill="#10A64B"></path>
                <g id="编组-7" transform="translate(89.000000, 27.000000)" fill="#FFFFFF">
                    <text id="微信支付" font-family="PingFangSC-Medium, PingFang SC" font-size="30" font-weight="400">
                        <tspan x="46" y="32">微信支付</tspan>
                    </text>
                    <g id="微信-(1)" transform="translate(0.000000, 5.000000)" fill-rule="nonzero">
                        <path d="M13.7245263,20.149775 C11.5692632,21.306397 11.25,19.5004938 11.25,19.5004938 L8.55000001,13.433503 C7.51073685,10.5505795 9.44905264,12.1330225 9.44905264,12.1330225 C9.44905264,12.1330225 11.1116842,13.3443108 12.3745263,14.0827842 C13.6354737,14.8212576 15.0745263,14.2995309 15.0745263,14.299531 L32.7277895,6.4544496 C29.4707369,2.55109002 24.091579,0 18,0 C8.05831579,0 0,6.79011932 0,15.167477 C0,19.9857764 2.66778947,24.2737175 6.82389475,27.053063 L6.0754737,31.201941 C6.0754737,31.201941 5.70978948,32.4132292 6.97547368,31.8512222 C7.83852629,31.4675996 10.0383158,30.0961489 11.3475789,29.2608108 C13.4062105,29.9513315 15.6486316,30.334954 18,30.334954 C27.9407369,30.334954 36,23.5448347 36,15.167477 C36,12.7410643 35.3207368,10.4489195 34.117579,8.41571993 C28.4930526,11.6736345 15.4098948,19.2463439 13.7245263,20.149775 L13.7245263,20.149775 Z" id="路径"></path>
                    </g>
                </g>
            </g>
        </g>
    </g>
</svg>