<?xml version="1.0" encoding="UTF-8"?>
<svg width="190px" height="220px" viewBox="0 0 190 220" version="1.1" xmlns="http://www.w3.org/2000/svg" xmlns:xlink="http://www.w3.org/1999/xlink">
    <title>编组 12备份 2</title>
    <defs>
        <rect id="path-1" x="0" y="0" width="190" height="220" rx="22"></rect>
    </defs>
    <g id="页面-1" stroke="none" stroke-width="1" fill="none" fill-rule="evenodd">
        <g id="我的" transform="translate(-280.000000, -1028.000000)">
            <g id="编组-12备份-2" transform="translate(280.000000, 1028.000000)">
                <g id="矩形-3">
                    <mask id="mask-2" fill="white">
                        <use xlink:href="#path-1"></use>
                    </mask>
                    <use id="矩形" fill="#FEF2EB" xlink:href="#path-1"></use>
                    <g id="合作" opacity="0.0433640253" mask="url(#mask-2)" fill="#FF5E00" fill-rule="nonzero">
                        <g transform="translate(48.000000, 97.000000)" id="形状">
                            <path d="M92.750207,64.2476377 L87.0268278,69.9725852 C82.9617798,74.1885558 76.9420572,75.8793776 71.2813451,74.3951818 C65.6206329,72.910986 61.1998697,68.482748 59.7181792,62.8124646 C58.2364887,57.1421812 59.9244564,51.1122803 64.1333106,47.0403591 L109.709867,1.37052256 C131.841316,-3.67178578 154.706431,6.06874898 166.432695,25.5344364 C178.158959,45.0001237 176.103507,69.8037889 161.333615,87.066338 L147.134453,101.476015 C146.3766,102.24573 145.343251,102.680398 144.263994,102.683459 C143.184736,102.686489 142.148958,102.257659 141.386788,101.492233 L104.196966,64.2395287 C101.033516,61.0761634 95.9091862,61.0797936 92.750207,64.2476377 Z M80.3077262,7.89015121 L52.6784566,35.574246 C40.2331406,48.0157555 39.9736177,68.1320933 52.0938128,80.8915977 C64.2140078,93.651102 84.2844902,94.3907009 97.3078628,82.557739 L98.4735864,81.4468073 L129.964315,112.974564 C130.725612,113.735222 131.153465,114.768051 131.153465,115.845147 C131.153465,116.922242 130.725612,117.955071 129.964315,118.715729 L98.4735864,150.251595 C92.1511571,156.582802 81.9024984,156.582802 75.5800691,150.251595 L15.4643483,90.0342286 C-3.46025193,71.1305553 -5.23195768,41.0190102 11.3448117,20.0194345 C27.921581,-0.980141239 57.5807401,-6.19663105 80.3077262,7.89015121 L80.3077262,7.89015121 Z"></path>
                        </g>
                    </g>
                </g>
                <text id="商务合作" font-family="MiSans-Heavy, MiSans" font-size="26" font-weight="800" fill="#FF5E00">
                    <tspan x="24" y="50">商务合作</tspan>
                </text>
                <text id="TG：Oliver" font-family="PingFangSC-Regular, PingFang SC" font-size="20" font-weight="normal" line-spacing="24" fill="#FF5E00">
                    <tspan x="24" y="90">TG：Oliver</tspan>
                </text>
                <g id="合作" transform="translate(24.000000, 147.000000)" fill="#FF5E00" fill-rule="nonzero">
                    <path d="M29.8506413,20.7250444 L28.0086342,22.5718017 C26.7003429,23.9317922 24.762961,24.4772186 22.9411226,23.9984457 C21.1192842,23.5196729 19.6965098,22.091209 19.2196439,20.2620854 C18.742778,18.4329617 19.2860319,16.4878324 20.6406057,15.1743094 L35.3089227,0.442104053 C42.4316879,-1.18444703 49.7905756,1.95766096 53.5645456,8.23691495 C57.3385155,14.5161689 56.6769907,22.5173513 51.9234623,28.0859155 L47.3536172,32.7341983 C47.1097104,32.9824937 46.7771381,33.122709 46.429791,33.1236966 C46.0824439,33.1246738 45.7490901,32.9863418 45.5037939,32.7394299 L33.5346556,20.7224286 C32.516534,19.7019882 30.8673243,19.7031592 29.8506413,20.7250444 Z M25.8461648,2.54521007 L16.953986,11.4755632 C12.948597,15.4889534 12.8650724,21.9780946 16.7658248,26.0940638 C20.6665772,30.2100329 27.1260428,30.4486132 31.3174731,26.6315287 L31.6926485,26.2731637 L41.8275958,36.4434077 C42.0726106,36.6887812 42.2103106,37.0219521 42.2103106,37.3694021 C42.2103106,37.7168521 42.0726106,38.050023 41.8275958,38.2953965 L31.6926485,48.4682563 C29.6578437,50.5105812 26.3594248,50.5105812 24.3246199,48.4682563 L4.97703163,29.0432996 C-1.1136443,22.9453404 -1.68384845,13.2319388 3.65120375,6.45788208 C8.98625595,-0.316174593 18.5317324,-1.99891324 25.8461648,2.54521007 L25.8461648,2.54521007 Z" id="形状"></path>
                </g>
            </g>
        </g>
    </g>
</svg>