<?xml version="1.0" encoding="UTF-8"?>
<svg width="345px" height="96px" viewBox="0 0 345 96" version="1.1" xmlns="http://www.w3.org/2000/svg" xmlns:xlink="http://www.w3.org/1999/xlink">
    <title>编组 3</title>
    <g id="页面-1" stroke="none" stroke-width="1" fill="none" fill-rule="evenodd">
        <g id="升级会员" transform="translate(-30.000000, -1462.000000)">
            <g id="编组-3" transform="translate(30.000000, 1462.000000)">
                <path d="M48,0 L345,0 L345,0 L324.833333,96 L48,96 C21.490332,96 3.24649801e-15,74.509668 0,48 C-3.24649801e-15,21.490332 21.490332,4.86974701e-15 48,0 Z" id="矩形" fill="#4394FF"></path>
                <g id="编组-6" transform="translate(66.000000, 27.000000)">
                    <text id="支付宝支付" font-family="PingFangSC-Medium, PingFang SC" font-size="30" font-weight="400" fill="#FFFFFF">
                        <tspan x="48.9411765" y="32">支付宝支付</tspan>
                    </text>
                    <g id="支付平台-支付宝" transform="translate(0.000000, 1.000000)" fill-rule="nonzero">
                        <path d="M0,19.7647059 C0,30.7058824 8.47750865,39.5294118 18.9896194,39.5294118 C29.5017301,39.5294118 37.9792388,30.7058824 37.9792388,19.7647059 C37.9792388,8.82352941 29.5017301,0 18.9896194,0 C8.47750865,0 0,8.82352941 0,19.7647059 Z" id="路径" fill="#FFFFFF"></path>
                        <path d="M22.9910035,22.2352941 C22.9910035,22.2352941 23.6692042,21.2470588 24.3474049,19.2705883 C25.0934256,17.2941177 25.1612457,16.1647059 25.1612457,16.1647059 L19.7356402,16.0941177 L19.7356402,14.1882353 L26.3141869,14.1176471 L26.3141869,12.7058824 L19.6678201,12.7058824 L19.6678201,9.6 L16.4124568,9.6 L16.4124568,12.7058824 L10.1730104,12.7058824 L10.1730104,14.1176471 L16.3446367,14.0470588 L16.3446367,16.1647059 L11.4615917,16.1647059 L11.4615917,17.2941177 L21.6346021,17.2941177 C21.566782,18 21.3633218,18.6352942 21.1598616,19.2705883 C20.7529412,20.3294118 20.3460208,21.3176471 20.3460208,21.3176471 C20.3460207,21.3176471 15.5986159,19.5529412 13.0214533,19.5529412 C10.5121107,19.5529412 7.46020762,20.6117647 7.12110731,23.6470588 C6.84982705,26.6823529 8.54532874,28.3764706 10.9868512,28.9411765 C13.3605537,29.5058824 15.598616,28.9411765 17.565398,27.9529412 C19.5321799,26.9647059 21.4311419,24.7058824 21.4311419,24.7058824 L31.5363322,29.8588235 C31.5363322,29.8588235 32.1467128,28.8705882 32.6214533,27.9529412 C32.9605537,27.3176471 33.2318339,26.6117647 33.5031142,25.9764706 L22.9910035,22.2352941 L22.9910035,22.2352941 Z M12.5467128,27.2470588 C8.95224915,27.2470588 8.27404849,25.4117647 8.27404849,24.1411765 C8.27404849,22.8705883 9.02006925,21.3882353 12.0719723,21.1764706 C15.0560554,20.9647059 19.1930796,23.4352941 19.1930796,23.4352941 C19.1930796,23.4352941 16.1411765,27.2470588 12.5467128,27.2470588 L12.5467128,27.2470588 Z" id="形状" fill="#4394FF"></path>
                    </g>
                </g>
            </g>
        </g>
    </g>
</svg>