<?xml version="1.0" encoding="UTF-8"?>
<svg width="28px" height="24px" viewBox="0 0 28 24" version="1.1" xmlns="http://www.w3.org/2000/svg" xmlns:xlink="http://www.w3.org/1999/xlink">
    <title>喇叭</title>
    <g id="页面-1" stroke="none" stroke-width="1" fill="none" fill-rule="evenodd">
        <g id="首页1备份-11" transform="translate(-46.000000, -761.000000)" fill-rule="nonzero">
            <g id="编组-15" transform="translate(30.000000, 743.500000)">
                <g id="喇叭" transform="translate(16.000000, 17.500000)">
                    <path d="M18.4781607,0.63178421 C17.6119969,-0.02339941 16.6014725,-0.168995781 15.5909481,0.19499513 L7.07367087,4.49008773 C6.42404804,4.70848227 5.91878584,5.14527135 5.55788425,5.65485863 C5.12480236,5.50926226 4.61954017,5.36366592 3.89773702,5.36366589 L2.9593929,5.36366589 C1.29924564,5.36366589 0,6.7468313 0,8.49398765 L0,15.919402 C0,17.6665583 1.29924567,19.0497237 2.9593929,19.0497237 L3.89773702,19.0497237 C4.61954017,19.0497237 5.1248024,18.9769256 5.55788425,18.758531 C5.91878584,19.2681183 6.42404804,19.6321092 7.00149057,19.8505037 L15.3744072,23.7816055 L15.4465875,23.7816055 C15.807489,23.9272018 16.2405709,24 16.6014725,24 C17.2510953,24 17.9007182,23.7816055 18.4059804,23.4176145 C19.4165048,22.6896328 19.9939473,21.5248619 19.9939473,20.1416964 L19.9939473,3.83490411 C20.0661276,2.52453687 19.4886851,1.2869678 18.4781607,0.63178421 Z M4.76390081,16.5745856 L4.76390081,16.720182 C4.6917205,16.720182 4.47517956,16.7929802 3.96991733,16.7929802 L2.9593929,16.7929802 C2.52631101,16.7929802 2.16540946,16.3561911 2.16540946,15.8466038 L2.16540946,8.42118945 C2.16540946,7.9116022 2.52631105,7.47481312 2.9593929,7.47481312 L3.89773702,7.47481312 C4.47517956,7.47481312 4.6917205,7.54761129 4.69172047,7.54761129 L4.69172047,16.2105947 C4.76390081,16.3561911 4.76390081,16.4289893 4.76390081,16.5745856 L4.76390081,16.5745856 Z M17.9007182,20.2144946 C17.9007182,20.7968801 17.6119969,21.3792655 17.2510953,21.6704582 C17.0345544,21.8160546 16.7458331,21.9616509 16.3127512,21.8160546 L7.93983466,17.8121547 L7.86765435,17.8121547 C7.29021182,17.5937601 6.92931027,16.9385765 6.92931027,16.2105947 L6.92931027,8.05719857 C6.92931027,7.32921678 7.36239216,6.67403316 7.86765435,6.45563859 L16.3849315,2.16054599 C16.7458331,2.08774782 17.0345544,2.23334416 17.2510953,2.30614233 C17.6841772,2.59733504 17.9007182,3.10692232 17.9007182,3.76210594 L17.9007182,20.2144946 Z" id="形状" fill="#000000"></path>
                    <path d="M22.4649583,6.78004215 C22.6849854,6.92668073 22.9050125,7 23.1250396,7 C23.4917514,7 23.7851209,6.85336142 24.005148,6.56008429 L26.7921581,2.74748148 C27.1588699,2.2342465 27.0121852,1.57437294 26.572131,1.2077765 C26.0587344,0.841180068 25.3986531,0.987818648 25.0319412,1.42773436 L22.1715888,5.24033717 C21.8782193,5.75357215 21.9515617,6.41344571 22.4649583,6.78004215 L22.4649583,6.78004215 Z" id="路径" fill="#FF1471"></path>
                    <path d="M23.9871795,18.4474886 C23.6208791,17.9360731 22.9615384,17.8630137 22.4487179,18.2283105 C21.9358974,18.5936073 21.8626374,19.2511416 22.2289377,19.7625571 L25.0128205,23.5616438 C25.2326007,23.8538813 25.525641,24 25.8919414,24 C26.1117216,24 26.3315018,23.9269407 26.5512821,23.7808219 C27.0641026,23.4155251 27.1373626,22.7579909 26.7710623,22.2465753 L23.9871795,18.4474886 Z" id="路径" fill="#FF1471"></path>
                    <path d="M26.8461538,11 L23.1538462,11 C22.5384615,11 22,11.4666667 22,12 C22,12.5333333 22.5384615,13 23.1538462,13 L26.8461538,13 C27.4615385,13 28,12.5333333 28,12 C28,11.4666667 27.5384615,11 26.8461538,11 Z" id="路径" fill="#FF1471"></path>
                </g>
            </g>
        </g>
    </g>
</svg>