<?xml version="1.0" encoding="UTF-8"?>
<svg width="75px" height="66px" viewBox="0 0 75 66" version="1.1" xmlns="http://www.w3.org/2000/svg" xmlns:xlink="http://www.w3.org/1999/xlink">
    <title>编组 55</title>
    <defs>
        <linearGradient x1="50%" y1="0%" x2="50%" y2="100%" id="linearGradient-1">
            <stop stop-color="#FF1370" offset="0%"></stop>
            <stop stop-color="#FF61BF" offset="98.9697645%"></stop>
            <stop stop-color="#FF2BA9" offset="100%"></stop>
        </linearGradient>
    </defs>
    <g id="页面-1" stroke="none" stroke-width="1" fill="none" fill-rule="evenodd">
        <g id="首页1备份-11" transform="translate(-447.000000, -518.000000)">
            <g id="编组-25" transform="translate(56.000000, 518.000000)">
                <g id="编组-55" transform="translate(391.000000, 0.000000)">
                    <circle id="椭圆形" fill="url(#linearGradient-1)" cx="41.3508227" cy="33" r="33"></circle>
                    <path d="M11.644836,14.9995369 L39.4705657,16.3372889 C42.1509192,16.4661498 44.6917253,17.5703454 46.6146816,19.442013 L59.53701,32.0196791 C60.7243096,33.1753113 60.7499812,35.0746327 59.594349,36.2619323 C59.5916571,36.264698 59.5889598,36.2674586 59.5862572,36.2702139 L47.084462,49.0158013 C44.8871259,51.2559866 41.8376472,52.4510889 38.7033196,52.3004027 L11.0685886,50.9718332 C7.8705845,50.8180857 5.35671227,48.1804528 5.35671227,44.9787551 L5.35671227,20.992615 C5.35671227,17.6789065 8.04300377,14.992615 11.3567123,14.992615 C11.4527951,14.992615 11.548864,14.9949229 11.644836,14.9995369 Z" id="矩形" fill="#B00047" transform="translate(33.525916, 33.617252) rotate(-25.000000) translate(-33.525916, -33.617252) "></path>
                    <g id="近期特惠" transform="translate(29.701826, 34.501334) rotate(-24.000000) translate(-29.701826, -34.501334) translate(13.485004, 26.740587)" fill="#FFFFFF" fill-rule="nonzero">
                        <path d="M6.72897192,10.5420561 C7.22242988,11.6635514 7.40186911,12.4261682 7.53644859,13.2785047 L9.73457944,13.2785047 C9.51028036,12.2915888 9.24112148,11.4841121 8.74766353,10.5420561 L6.72897192,10.5420561 Z M4.93457944,0.0448597969 L2.64672895,0.0448597969 L2.64672895,2.55700936 L2.06355141,2.55700936 C2.1084112,2.06355141 2.1084112,1.52523366 2.1084112,0.942056063 L0.583177547,0.942056063 C0.583177547,3.1850467 0.448598109,4.30654205 3.70178632e-13,5.42803739 L3.70178632e-13,7.08785048 C1.0317757,6.28037386 1.61495325,5.47289723 1.88411213,4.08224297 L2.64672895,4.08224297 L2.64672895,8.38878506 C1.88411213,8.4785047 1.0766355,8.5682243 0.0897195938,8.61308409 L0.0897195938,10.5869159 C1.0766355,10.4523365 1.92897192,10.3626168 2.64672895,10.2280374 L2.64672895,15.5214953 L4.93457944,15.5214953 L4.93457944,9.6448598 C5.24859811,9.55514016 5.56261683,9.42056072 5.9214953,9.28598128 L5.9214953,7.71588783 C5.56261678,7.85046727 5.24859811,7.89532706 4.93457944,7.9850467 L4.93457944,4.12710281 L5.9214953,4.12710281 L5.9214953,2.55700936 L4.93457944,2.55700936 L4.93457944,0.0448597969 L4.93457944,0.0448597969 Z M11.9775701,2.87102803 L14.8934579,2.87102803 L14.8934579,1.25607478 L11.9775701,1.25607478 L11.9775701,8.3619508e-14 L9.55514016,8.3619508e-14 L9.55514016,1.25607478 L6.72897192,1.25607478 L6.72897192,2.87102803 L9.55514016,2.87102803 L9.55514016,4.8448598 L6.14579437,4.8448598 L6.14579437,6.54953269 L15.5663551,6.54953269 L15.5663551,4.8448598 L11.9775701,4.8448598 L11.9775701,2.87102803 Z" id="形状"></path>
                        <path d="M13.9514018,7.17757008 L11.5738318,7.17757008 L11.5738318,8.25420562 L6.28037381,8.25420562 L6.28037381,9.86915887 L11.5738318,9.86915887 L11.5738318,12.8747663 C11.5738318,13.5028037 11.3495327,13.7271028 10.8112149,13.7271028 L9.77943923,13.7271028 L9.77943923,15.3869159 L11.8878504,15.3869159 C13.1439252,15.3869159 13.9514018,14.5794393 13.9514018,13.0990654 L13.9514018,9.86915887 L15.4317757,9.86915887 L15.4317757,8.25420562 L13.9514018,8.25420562 L13.9514018,7.17757008 L13.9514018,7.17757008 Z M27.6336449,13.0990654 C27.6336449,13.5925234 27.364486,13.8168225 26.871028,13.8168224 L24.2691589,13.8168224 C23.4616823,13.8168224 23.1925234,13.5925233 23.1925233,12.7401869 L23.1925233,11.1252337 L20.9046729,11.1252337 L20.9046729,13.1887851 C20.9046729,14.6691589 21.5775701,15.2971963 23.1028037,15.2971963 L27.5439252,15.2971963 C28.8897196,15.2971963 29.4728972,14.7140187 29.4728972,13.3682243 L29.4728972,12.8747663 L27.6336449,12.8747663 L27.6336449,13.0990654 L27.6336449,13.0990654 Z M31.1775701,11.1252337 L29.2485981,11.1252337 C29.8317757,12.2915888 30.1457944,13.4130841 30.2803738,14.7588785 L32.4336449,14.7588785 C32.164486,13.3682243 31.7607477,12.246729 31.1775701,11.1252337 L31.1775701,11.1252337 Z M32.3439252,2.28785048 L32.3439252,0.807476625 L26.1084112,0.807476625 L26.1084112,-1.582406e-13 L23.5514018,-1.582406e-13 L23.5514018,0.807476625 L17.4056075,0.807476625 L17.4056075,2.28785048 L23.5514018,2.28785048 L23.5514018,3.00560747 L18.3476635,3.00560747 L18.3476635,8.34392522 L23.5514018,8.34392522 L23.5514018,9.10654205 L17.271028,9.10654205 L17.271028,10.5869159 L26.2429906,10.5869159 C27.8130841,10.5869159 28.8897196,10.4971963 30.2803738,10.2280374 C30.3252336,10.4523365 30.3252336,10.6766355 30.3700935,10.9009346 L32.388785,10.9009346 C32.1644859,9.86915887 31.8504673,9.06168225 31.446729,8.25420562 L30.1009346,8.25420562 C30.9981308,8.07476639 31.3570094,7.40186916 31.3570093,6.14579437 L31.3570093,3.00560747 L26.1084112,3.00560747 L26.1084112,2.28785048 L32.3439252,2.28785048 L32.3439252,2.28785048 Z M23.5514018,7.04299064 L20.7252336,7.04299064 L20.7252336,6.19065422 L23.5514018,6.19065422 L23.5514018,7.04299064 Z M23.5514018,5.06915887 L20.7252336,5.06915887 L20.7252336,4.26168225 L23.5514018,4.26168225 L23.5514018,5.06915887 Z M26.1084112,6.23551402 L29.024299,6.23551402 C29.024299,6.81869156 28.8448598,7.04299064 28.2168224,7.08785048 L26.1084112,7.08785048 L26.1084112,6.23551402 Z M29.6971963,8.34392522 L29.9214953,8.88224297 C28.7102804,9.0616822 27.7233645,9.10654205 26.2429906,9.10654205 L26.1084112,9.10654205 L26.1084112,8.34392522 L29.6971963,8.34392522 L29.6971963,8.34392522 Z M29.024299,4.26168225 L29.024299,5.06915887 L26.1084112,5.06915887 L26.1084112,4.26168225 L29.024299,4.26168225 Z M17.271028,14.7588785 L19.3794392,14.7588785 C19.8728972,13.682243 20.1420561,12.7850467 20.3663551,11.1252337 L18.4373832,11.1252337 C18.1682243,12.5607477 17.8990654,13.4130841 17.271028,14.7588785 Z" id="形状"></path>
                        <path d="M25.435514,12.8299065 L27.8579439,12.8299065 C27.7233645,12.246729 27.4542056,11.5738318 27.0953271,11.1252337 L24.8074766,11.1252337 C25.1663551,11.7084112 25.3906542,12.2018692 25.435514,12.8299065 L25.435514,12.8299065 Z" id="路径"></path>
                    </g>
                </g>
            </g>
        </g>
    </g>
</svg>